<?xml version="1.0" encoding="UTF-8"?>
<svg enable-background="new 0 0 652 652" version="1.1" viewBox="0 0 652 652" xml:space="preserve" xmlns="http://www.w3.org/2000/svg">
<style type="text/css">
	.st0{fill:#FFFFFF;}
	.st1{fill:#CAD9E3;}
	.st2{fill:#6DA4BA;}
</style>
<path class="st0" d="m467.7 233.7c-4.8 80.4-73.9 141.6-154.3 136.8s-141.7-73.9-136.8-154.3c4.8-80.4 73.9-141.6 154.3-136.8 79.4 4.8 140.2 72.3 137 151.4"/>
<path class="st1" d="m321.6 363.2 2.5-0.1 0.1 13.5h-2.5l-0.1-13.4zm-7.1 13.4 0.6-13.5 2.5 0.1-0.5 13.5-2.6-0.1zm13.5-13.5 2.5-0.1 0.8 13.5-2.5 0.2-0.8-13.6zm-20.5 13 1-13.5 2.6 0.2-1.1 13.5-2.5-0.2zm27-13.5 2.5-0.3 1.3 13.5-2.5 0.2-1.3-13.4zm-34.1 12.7 1.8-13.4 2.5 0.3-1.7 13.4-2.6-0.3zm40.5-13.4 2.5-0.4 2 13.4-2.4 0.3-2.1-13.3zm-47.5 12.3 2.4-13.3 2.6 0.4-2.5 13.3-2.5-0.4zm53.9-13.4 2.5-0.5 2.7 13.3-2.5 0.4-2.7-13.2zm-60.8 11.9 2.9-13.2 2.5 0.6-2.9 13.2-2.5-0.6zm67.1-13.2 2.5-0.6 3.3 13.1-2.5 0.6-3.3-13.1zm-74 11.5 3.5-13 2.5 0.6-3.6 13-2.4-0.6zm80.4-13.2 2.4-0.7 3.8 13-2.4 0.7-3.8-13zm-87.2 11 4.2-12.8 2.4 0.8-4.2 12.9-2.4-0.9zm93.3-13 2.4-0.8 4.4 12.8-2.4 0.8-4.4-12.8zm-100 10.6 4.9-12.6 2.4 0.9-4.9 12.6-2.4-0.9zm106.1-12.8 2.3-1 5.1 12.5-2.4 1-5-12.5zm-112.7 10.1 5.3-12.4 2.4 1-5.3 12.4-2.4-1zm118.7-12.6 2.3-1.1 5.6 12.2-2.3 1.1-5.6-12.2zm-125.1 9.5 5.9-12.1 2.3 1.1-5.9 12.2-2.3-1.2zm130.9-12.2 2.3-1.2 6.2 12-2.2 1.2-6.3-12zm-137.2 8.9 6.5-11.8 2.2 1.2-6.5 11.9-2.2-1.3zm142.9-12 2.2-1.3 6.8 11.7-2.2 1.3-6.8-11.7zm-149 8.4 7.1-11.5 2.2 1.3-7.1 11.6-2.2-1.4zm154.6-11.7 2.1-1.4 7.4 11.3-2.1 1.4-7.4-11.3zm-160.6 7.8 7.6-11.1 2.1 1.4-7.6 11.1-2.1-1.4zm166-11.5 2.1-1.5 7.8 11.1-2.1 1.5-7.8-11.1zm-171.7 7.3 8.2-10.8 2 1.5-8.1 10.8-2.1-1.5zm177-11.1 2-1.6 8.3 10.7-2 1.6-8.3-10.7zm-182.6 6.7 8.5-10.5 2 1.6-8.5 10.5-2-1.6zm187.6-10.8 1.9-1.6 8.7 10.2-1.9 1.6-8.7-10.2zm-192.9 6.1 9-10 1.9 1.7-9 10-1.9-1.7zm197.7-10.3 1.9-1.7 9.3 9.8-1.9 1.7-9.3-9.8zm-202.9 5.4 9.5-9.7 1.8 1.8-9.5 9.6-1.8-1.7zm207.6-9.9 1.8-1.8 9.7 9.4-1.8 1.8-9.7-9.4zm-212.4 4.7 10-9.1 1.7 1.9-9.9 9.1-1.8-1.9zm216.8-9.5 1.7-1.9 10.1 8.9-1.7 1.9-10.1-8.9zm-221.5 4.1 10.4-8.7 1.6 1.9-10.3 8.7-1.7-1.9zm225.7-9 1.6-2 10.6 8.4-1.6 2-10.6-8.4zm-230.1 3.4 10.8-8.1 1.5 2-10.8 8.2-1.5-2.1zm234.1-8.5 1.5-2.1 11 7.8-1.5 2.1-11-7.8zm-238.2 2.6 11.1-7.6 1.5 2.1-11.2 7.6-1.4-2.1zm242-8 1.4-2.1 11.3 7.6-1.4 2.1-11.3-7.6zm-245.9 2.1 11.5-7.1 1.3 2.2-11.5 7.1-1.3-2.2zm249.4-7.5 1.3-2.2 11.6 6.9-1.3 2.2-11.6-6.9zm-252.9 1.4 11.8-6.7 1.2 2.2-11.7 6.7-1.3-2.2zm256.1-7 1.2-2.3 11.9 6.4-1.2 2.2-11.9-6.3zm-259.4 0.7 12.1-6.1 1.1 2.2-12.1 6.1-1.1-2.2zm262.3-6.5 1.1-2.3 12.2 5.8-1.1 2.3-12.2-5.8zm-265.3 0 12.3-5.6 1.1 2.3-12.4 5.5-1-2.2zm268-5.8 1-2.4 12.5 5.1-0.9 2.4-12.6-5.1zm-270.6-0.8 12.6-4.9 0.9 2.4-12.6 4.9-0.9-2.4zm273-5.3 0.9-2.4 12.7 4.6-0.8 2.4-12.8-4.6zm-275.4-1.4 12.8-4.2 0.8 2.4-12.8 4.3-0.8-2.5zm277.6-4.7 0.8-2.4 12.9 4.1-0.8 2.4-12.9-4.1zm-279.6-2.2 13-3.6 0.7 2.4-13 3.6-0.7-2.4zm281.4-4 0.6-2.5 13.1 3.4-0.7 2.4-13-3.3zm-283.1-2.9 13.1-3 0.6 2.4-13.2 3-0.5-2.4zm284.6-3.4 0.5-2.5 13.2 2.7-0.5 2.5-13.2-2.7zm-286.1-3.5 13.3-2.5 0.5 2.5-13.3 2.5-0.5-2.5zm287.4-2.8 0.4-2.5 13.4 2.1-0.4 2.5-13.4-2.1zm-288.4-4.2 13.3-1.9 0.4 2.5-13.3 1.8-0.4-2.4zm289.3-2.3 0.3-2.6 13.4 1.6-0.3 2.5-13.4-1.5zm-290.1-4.9 13.5-1.1 0.2 2.5-13.4 1.2-0.3-2.6zm290.8-1.6 0.2-2.5 13.5 0.9-0.2 2.5-13.5-0.9zm-291.2-5.4 13.5-0.6 0.1 2.5-13.4 0.6-0.2-2.5zm291.5 0.3 0.1-2.5 13.5 0.4-0.1 2.6-13.5-0.5zm-291.5-4.9v-2.5h13.5v2.5h-13.5zm291.6-4.1 13.5-0.2v2.5l-13.5 0.2v-2.5zm-291.5-3 0.1-2.6 13.5 0.7-0.1 2.5-13.5-0.6zm291.2-3.4 13.5-0.9 0.2 2.5-13.5 0.9-0.2-2.5zm-290.8-3.7 0.3-2.5 13.4 1.2-0.2 2.5-13.5-1.2zm290.2-2.8 13.4-1.4 0.3 2.5-13.5 1.4-0.2-2.5zm-289.4-4.3 0.3-2.5 13.4 1.9-0.3 2.5-13.4-1.9zm288.5-2.2 13.4-2 0.3 2.5-13.4 2-0.3-2.5zm-287.3-4.8 0.5-2.4 13.3 2.6-0.5 2.5-13.3-2.7zm286.1-1.5 13.2-2.7 0.5 2.5-13.2 2.7-0.5-2.5zm-284.7-5.4 0.6-2.5 13.1 3.1-0.6 2.4-13.1-3zm283.2-0.9 13.1-3.4 0.6 2.4-13.1 3.4-0.6-2.4zm-281.5-6 0.7-2.5 13 3.7-0.7 2.4-13-3.6zm279.7-0.2 12.9-3.9 0.8 2.4-12.9 4-0.8-2.5zm-277.5-6.6 0.8-2.4 12.8 4.4-0.8 2.4-12.8-4.4zm275.4 0.4 12.8-4.4 0.8 2.4-12.8 4.5-0.8-2.5zm-273-7.2 0.9-2.4 12.6 5-0.9 2.3-12.6-4.9zm270.6 1.1 12.5-5 1 2.3-12.5 5.1-1-2.4zm-267.9-7.7 1-2.3 12.3 5.7-1.1 2.3-12.2-5.7zm265.3 1.9 12.3-5.7 1.1 2.3-12.2 5.7-1.2-2.3zm-262.3-8.2 1.1-2.2 12.1 6.1-1.1 2.2-12.1-6.1zm259.3 2.4 12-6.2 1.2 2.2-12 6.3-1.2-2.3zm-256-8.7 1.2-2.2 11.8 6.7-1.3 2.2-11.7-6.7zm252.8 3 11.7-6.8 1.3 2.1-11.6 6.8-1.4-2.1zm-249.2-9.2 1.3-2.1 11.5 7.2-1.4 2.1-11.4-7.2zm245.8 3.8 11.3-7.4 1.4 2.1-11.3 7.3-1.4-2zm-241.9-9.7 1.5-2.1 11 7.8-1.4 2.1-11.1-7.8zm238.2 4.3 11-7.9 1.5 2.1-11 7.9-1.5-2.1zm-234-10.1 1.6-2 10.7 8.3-1.6 2-10.7-8.3zm230.1 5 10.6-8.4 1.6 2-10.6 8.4-1.6-2zm-225.7-10.6 1.6-1.9 10.3 8.8-1.6 1.9-10.3-8.8zm221.5 5.6 10.2-8.8 1.7 1.9-10.2 8.9-1.7-2zm-216.8-11 1.7-1.9 9.8 9.3-1.7 1.9-9.8-9.3zm212.4 6.3 9.8-9.3 1.8 1.8-9.8 9.3-1.8-1.8zm-207.5-11.3 1.8-1.8 9.5 9.6-1.8 1.8-9.5-9.6zm202.9 6.8 9.3-9.8 1.8 1.8-9.3 9.8-1.8-1.8zm-197.8-11.7 1.9-1.7 9 10-1.9 1.7-9-10zm192.9 7.3 8.8-10.2 1.9 1.6-8.8 10.3-1.9-1.7zm-187.5-12 2-1.6 8.5 10.5-2 1.6-8.5-10.5zm182.5 7.8 8.5-10.5 1.9 1.6-8.4 10.5-2-1.6zm-176.9-12.2 2.1-1.5 8 10.9-2 1.5-8.1-10.9zm171.7 8.4 8-10.9 2 1.5-8 10.9-2-1.5zm-165.9-12.5 2.1-1.4 7.5 11.2-2.2 1.4-7.4-11.2zm160.5 8.9 7.5-11.3 2.1 1.4-7.4 11.3-2.2-1.4zm-154.5-12.8 2.1-1.3 6.9 11.6-2.1 1.3-6.9-11.6zm149 9.4 6.8-11.6 2.2 1.2-6.9 11.6-2.1-1.2zm-142.9-13 2.2-1.2 6.4 11.9-2.2 1.2-6.4-11.9zm137.2 10 6.3-12 2.2 1.2-6.3 12-2.2-1.2zm-130.8-13.3 2.3-1.1 5.8 12.2-2.3 1.1-5.8-12.2zm124.9 10.4 5.8-12.2 2.3 1.1-5.7 12.2-2.4-1.1zm-118.6-13.4 2.3-1 5.4 12.4-2.3 1-5.4-12.4zm112.7 10.9 5.1-12.5 2.3 1-5.1 12.5-2.3-1zm-106.1-13.5 2.4-0.9 4.7 12.7-2.3 0.9-4.8-12.7zm100 11.2 4.5-12.7 2.4 0.8-4.5 12.7-2.4-0.8zm-93.2-13.6 2.4-0.8 4.1 12.9-2.4 0.7-4.1-12.8zm87.1 11.6 3.9-13 2.4 0.7-3.9 13-2.4-0.7zm-80.3-13.7 2.4-0.6 3.5 13.1-2.4 0.6-3.5-13.1zm74 12 3.4-13 2.4 0.6-3.3 13.1-2.5-0.7zm-67.1-13.7 2.5-0.6 2.8 13.2-2.4 0.5-2.9-13.1zm60.8 12.3 2.7-13.2 2.5 0.5-2.7 13.2-2.5-0.5zm-53.9-13.7 2.5-0.4 2.3 13.3-2.5 0.4-2.3-13.3zm47.5 12.7 2.1-13.3 2.5 0.3-2.1 13.3-2.5-0.3zm-40.4-13.8 2.5-0.3 1.7 13.4-2.5 0.3-1.7-13.4zm33.9 12.9 1.5-13.4 2.5 0.3-1.5 13.5-2.5-0.4zm-26.9-13.6 2.6-0.2 1 13.5-2.5 0.2-1.1-13.5zm20.4 13.1 0.9-13.5 2.5 0.2-0.9 13.5-2.5-0.2zm-13.2-13.6 2.5-0.1 0.3 13.5h-2.5l-0.3-13.4zm6.8 13.4 0.2-13.6h2.6l-0.2 13.6h-2.6z"/>
<path class="st2" d="m517.3 565c1.7 1.9 6 6.6 15.1 6.6 10.1 0 16.6-6 16.6-14 0-6.3-5.4-10.7-8.9-12.2v-0.2c3.3-1.5 7.6-5.9 7.6-11.5 0-8.2-6.8-13.4-15.3-13.4-8 0-13.6 6.4-13.6 6.4-0.5 0.6-0.6 1.4 0 1.9l2.7 2.4c0.6 0.6 1.5 0.4 1.9-0.2 1.5-1.6 4.1-4.1 8.5-4.1s8.4 3.1 8.4 8c0 4.3-3.5 7.8-10.3 7.8h-4.1c-1 0-1.5 0.5-1.5 1.6v3.2c0 1 0.6 1.5 1.4 1.5h4.1c7.9 0 11.6 4.2 11.6 8.6 0 4.9-4.4 7.9-9.2 7.9-5.5 0-9.5-3.9-10-4.5-0.6-0.7-1.3-0.7-2-0.1l-2.9 2.7c-0.5 0.3-0.5 1.1-0.1 1.6m-21.9 0c-8 0-10.7-8.4-10.1-14.5 0.4-1.3 4.2-5.6 10-5.6 5.5 0 9.8 4.5 9.8 10-0.1 5.5-4.3 10.1-9.7 10.1m-17.3-14c0 11.3 5.6 20.5 17.3 20.5 8.9 0 16.4-7.6 16.4-16.8 0-10.1-7.6-15.9-15.4-15.9-4.9 0-9.2 2.4-9.7 2.7 2.4-9 14.1-15.1 17.5-16.2 1.4-0.4 1.7-1.2 1.3-2.1l-1.2-3c-0.3-0.8-1-1.1-1.9-0.9-6.8 2.6-24.3 11.2-24.3 31.7m-33.8 6.7c0-3.9 3.4-8 9.3-8.8 6 0.9 9.3 4.9 9.3 8.8 0 4.9-4.2 8-9.4 8-4.8-0.1-9.2-3.2-9.2-8m9.3-15.9c-5.7-0.9-8.2-3.9-8.2-7.8 0-4.5 3.6-7.7 8-7.7 4.8 0 8.4 3.2 8.4 7.7 0 3.8-2.5 7-8.2 7.8m-17 15.7c0 8 6.5 14.1 16.8 14.1 10.7 0 17.1-6.1 17.1-14.1 0-6.3-5.5-10.7-8.9-12.3v-0.2c3.2-1.6 7.5-5.7 7.5-11.3 0-8.1-6.7-13.4-15.7-13.4-8.8 0-15.6 5.4-15.6 13.4 0 5.7 4.4 9.8 7.6 11.4v0.2c-2.6 1.1-8.8 5.8-8.8 12.2m-35.1 13.3h25.5c0.8 0 1.4-0.6 1.4-1.3v-3.2c0-0.8-0.6-1.4-1.4-1.4h-8.1v-42.6c0-0.7-0.6-1.4-1.3-1.4h-3.6l-10.9 9.8c-0.3 0.3-0.4 0.9-0.2 1.5l0.9 2.6c0.2 0.6 1 0.8 1.6 0.5l6.4-3.2v32.9h-10.2c-0.8 0-1.4 0.6-1.4 1.4v3.2c-0.2 0.6 0.4 1.2 1.3 1.2m-66.9-25.6c0-10.4 8.6-19.2 19-19.2 10.5 0 19.1 8.8 19.1 19.2 0 10.5-8.6 19-19.1 19-10.4 0-19-8.5-19-19m-7.3 0c0 14.7 11.6 26.4 26.3 26.4 14.6 0 26.4-11.7 26.4-26.4s-11.8-26.5-26.4-26.5c-14.7 0-26.3 11.8-26.3 26.5m-53.2 24.2c0 0.8 0.7 1.4 1.4 1.4h4.6c0.8 0 1.4-0.6 1.4-1.4v-35.7h0.1l31.8 37.9h1.9c0.7 0 1.4-0.6 1.4-1.3v-49.4c0-0.7-0.7-1.4-1.4-1.4h-4.7c-0.8 0-1.4 0.6-1.4 1.4v34.7h-0.1l-31.8-36.8h-1.8c-0.7 0-1.4 0.6-1.4 1.3v49.3zm-40.6-16 9-20.1h0.4l9 20.1h-18.4zm-13.6 17.4h4.7c0.9 0 1.5-0.6 1.7-1.1 1.5-3.4 3-6.7 4.5-10.1h24l4.5 10.1c0.2 0.7 0.8 1.1 1.7 1.1h4.6c1.1 0 1.7-0.9 1.2-1.9l-22.4-49.3c-0.2-0.5-0.8-0.8-1.2-0.8h-0.8c-0.3 0-1 0.3-1.2 0.8l-22.5 49.3c-0.5 1 0.1 1.9 1.2 1.9m-34.6-1.4c0 0.8 0.6 1.4 1.4 1.4h26.1c0.8 0 1.4-0.6 1.4-1.4v-4.1c0-0.7-0.6-1.4-1.4-1.4h-19.9v-43.2c0-0.7-0.7-1.4-1.4-1.4h-4.8c-0.8 0-1.4 0.6-1.4 1.4v48.7zm-21.9 0c0 0.8 0.7 1.4 1.4 1.4h4.8c0.7 0 1.4-0.6 1.4-1.4v-48.6c0-0.7-0.7-1.4-1.4-1.4h-4.8c-0.7 0-1.4 0.6-1.4 1.4v48.6zm-67.2-0.2c-0.2 1.1 0.4 1.7 1.4 1.7h4.7c0.6 0 1.2-0.5 1.3-1l5.3-32.8h0.3l13.3 33.8c0.1 0.4 0.7 0.8 1.2 0.8h1.3c0.7 0 1.1-0.4 1.2-0.8l13.2-33.8h0.2l5.4 32.8c0.2 0.5 0.8 1 1.4 1h4.7c1.1 0 1.6-0.6 1.4-1.7l-9-49.3c-0.1-0.6-0.7-1.1-1.3-1.1h-1.2c-0.5 0-1.1 0.3-1.3 0.8l-15.1 37.4h-0.3l-15.3-37.4c-0.2-0.5-0.8-0.8-1.3-0.8h-1.1c-0.6 0-1.2 0.5-1.4 1.1l-9 49.3z"/>
<path class="st2" d="m600 448.1c0-13.2 10.8-24.2 24-24.2s24.1 11 24.1 24.2-10.9 24-24.1 24-24-10.8-24-24m-13.6 0c0 20.9 16.7 37.6 37.6 37.6s37.8-16.7 37.8-37.6c0-21-16.8-37.9-37.8-37.9s-37.6 16.9-37.6 37.9m-73.1 0c0 20.9 16.9 37.6 37.8 37.6 9.4 0 18.4-3.3 25.5-10.2 0.8-0.7 1-2.1 0.1-2.8l-6.5-6.7c-0.6-0.6-1.7-0.8-2.6 0-4.4 3.5-9.8 5.9-16.1 5.9-13.4 0-23.5-11.1-23.5-24.2 0-13.2 10-24.4 23.4-24.4 5.9 0 11.7 2.3 16.1 6.2 0.8 0.8 1.9 0.8 2.6 0l6.4-6.6c0.8-0.8 0.8-2.1-0.1-2.9-7.1-6.4-14.7-9.8-25.4-9.8-20.8 0-37.7 16.9-37.7 37.9m-27.5 34.6c0 1.1 1 1.9 2 1.9h9.8c1 0 2-0.9 2-1.9v-69.4c0-1.1-0.9-2-2-2h-9.8c-1.1 0-2 1-2 2v69.4zm-79.9 0c0 1.1 0.9 1.9 2 1.9h9.6c1.1 0 2-0.9 2-1.9v-45.1h0.1l43.8 48.1h2.5c1 0 1.9-0.8 1.9-1.9v-70.5c0-1.1-0.9-2-1.9-2h-9.7c-1.2 0-2 1-2 2v43.3h-0.1l-43.6-46.3h-2.6c-1.1 0-2 0.8-2 1.9v70.5zm-77.3-34.6c0 20.9 16.9 37.6 37.9 37.6 9.3 0 18.3-3.3 25.5-10.2 0.8-0.7 0.9-2.1 0.1-2.8l-6.5-6.7c-0.6-0.6-1.8-0.8-2.6 0-4.4 3.5-9.8 5.9-16.1 5.9-13.4 0-23.5-11.1-23.5-24.2 0-13.2 10-24.4 23.4-24.4 5.9 0 11.7 2.3 16.1 6.2 0.8 0.8 1.9 0.8 2.6 0l6.4-6.6c0.8-0.8 0.8-2.1-0.1-2.9-7.1-6.4-14.8-9.8-25.4-9.8-20.9 0-37.8 16.9-37.8 37.9m-57.3 34.6c0 1.1 0.8 1.9 1.9 1.9h42.8c1.2 0 2-0.9 2-1.9v-8.6c0-1.1-0.8-2-2-2h-31v-18.4h25.9c1.1 0 2-0.8 2-2v-8.7c0-1.1-1-2-2-2h-25.9v-17.2h31c1.2 0 2-0.9 2-2v-8.5c0-1.1-0.8-2-2-2h-42.7c-1.1 0-1.9 1-1.9 2v69.4zm-43.7 0c0 1.1 1 1.9 2 1.9h9.7c1 0 2-0.9 2-1.9v-58.8h16.1c1.2 0 2-0.9 2-2v-8.5c0-1.1-0.8-2-2-2h-45.8c-1.1 0-2 1-2 2v8.5c0 1.1 0.9 2 2 2h16.1v58.8zm-45 0c0 1.1 0.9 1.9 2 1.9h9.8c1 0 2-0.9 2-1.9v-69.4c0-1.1-0.9-2-2-2h-9.8c-1.1 0-2 1-2 2v69.4zm-56 0c0 1.1 0.8 1.9 2 1.9h38.4c1.1 0 2-0.9 2-1.9v-8.6c0-1.1-0.9-2-2-2h-26.7v-58.8c0-1.1-0.9-2-2-2h-9.6c-1.1 0-2 1-2 2v69.4zm-72.7-34.6c0-13.2 10.8-24.2 24-24.2s24.1 11 24.1 24.2-10.9 24-24.1 24c-13.3 0-24-10.8-24-24m-13.7 0c0 20.9 16.7 37.6 37.7 37.6 20.9 0 37.7-16.7 37.7-37.6 0-21-16.8-37.9-37.7-37.9-21 0-37.7 16.9-37.7 37.9m-44.4-2.9v-21.1h12.1c5.9 0 10.8 4.4 10.8 10.2 0 6.2-4.9 10.9-10.8 10.9h-12.1zm-13.6 37.5c0 1.1 0.8 1.9 2 1.9h9.7c1.1 0 2-0.9 2-1.9v-24.7h13c12.8 0 23.3-10.6 23.3-23.6 0-12.7-10.5-23.2-23.4-23.2h-24.7c-1.1 0-2 1-2 2v69.5z"/>
<polygon class="st2" points="394.3 285.1 394.3 285.1 394.2 285.1"/>
<path class="st2" d="m361.8 203-6 1.3c-0.4 0.1-0.6 0.4-0.5 0.8s0.4 0.6 0.8 0.5l2.1-0.4 0.5 0.6c0.1 0.1 0.4 0.2 0.5 0.2 0.2 0 0.4-0.1 0.5-0.2 0.3-0.3 0.3-0.7 0.1-1l2.3-0.5c0.4-0.1 0.6-0.4 0.6-0.8-0.1-0.3-0.4-0.6-0.9-0.5"/>
<path class="st2" d="m437.8 291.2c-2.3-0.3-5.4-8-5.2-15.3 0-1.9 0.2-3.9 0.6-5.6 1.7-7.1 6.6-24.2 6.6-44.5 0-4.4-0.2-8.9-0.7-13.5-1.6-13.5-3.4-23.4-6.3-30.6 1.4-2 2.7-4.4 2.7-6.6 0-4.4-3.7-11.3-11.2-11.3-0.7 0-1.4 0.1-2.1 0.2l-4.7 1.4c-3.9-2.9-7.6-3.2-10.1-3.2h-1.5c-0.8 0-1.3-0.1-1.5-0.2-0.1 0-1.6-0.7-3.7-0.7-0.5 0-1 0.1-1.6 0.2h-0.1c-2.2-0.4-4.3-0.5-6.4-0.5-2.2 0-4.2 0.1-6.3 0.4-0.3-0.5-1.6-2.5-4.5-4.7v-0.9c-0.1-2.4-2.4-6.2-2.4-6.2-5.9-9.9-15-13.5-16.1-14 0.3-1.2 0.6-3.4 0.6-4.5v-0.5h-0.3 0.3c0-0.3 0.5-1.4 0.7-2.6v-0.3c-0.1-1.7-1.9-5-2.9-7.2-1.2-2.4-4-2.7-4.9-2.8-2.6-2.5-6.4-2.8-8.3-2.8h-1.2c-0.2 0.1-4.9 1.1-6 2-0.5 0.4-1.8 1.7-3 3-1.4-0.8-2.9-1.2-4.2-1.2-3.3 0-5.7 1.8-6.1 2 0-0.1-2.5 0.2-4 0.5-1.8 0.2-3.3 1-6.9 5.4-1.8 2.1-2.3 4.2-2.3 5.9 0 1.6 0.5 2.8 0.7 3.2-1.6 0.5-3 1.6-3.8 2.3-1.3 1.3-1.4 4.4-1.4 5.5h-0.5c-3 0.2-5.6 1.8-5.6 1.9 0 0.2-2.1 0.4-2.6 2 0 0.2 0.1 0.4 0.1 0.4 0.2 0.6 1.3 1.8 3.3 1.8h0.1c1.5 0.1 2.2-0.4 2.4-0.8 0.1 0 0.1 0 0.1-0.1 0.6 0.8 4.7 4.6 4.8 4.6 0.1 0.1 1.6 1.1 3.7 1.1 0.9 0 2-0.2 3-0.9 1.6-1.3 3.7-0.9 4.5-2.7 0.7-0.1 2.4-0.5 3.5-1.1 0.4-0.2 1-0.6 1.4-1.2 0.1-0.2 2-2.2 2.4-2v0.1c1.5 3.7 1.9 6.9 1.9 9.5 0 5.2-1.9 8-1.9 8-0.3 0.4-1.4 3.1-2.2 4.9-0.4-0.9-1.1-1.4-1.5-1.6-0.2-0.8-0.8-1.4-1.2-1.7v-0.1c-0.2-2.5-2.7-2.7-2.3-2.8-0.6-1.6-2.7-2.4-2.7-2.4-0.9-1.5-3.5-1.7-3.5-1.8h-0.3c-1.2 0-3.6 1-4.3 1.2h-1c-0.6 0-1.3 0-2.1 0.4h-0.8c-1.3 0-3.7 0.5-5.1 3.3 0 0-1.7 1.2-2.7 2.8 0 0.1-2.7 8-3.1 11-0.4 3.1-0.2 2.2-0.4 3-0.1 0.7-4.1 4.2-4.1 7.1 0 0.5 0.1 1 0.3 1.4-2.3 1.7-9.5 8-9.5 21.3 0 1.3 0.1 2.7 0.2 4.2-3-1.2-6.2-2.1-7-2.3-0.5-0.7-1.3-0.9-1.7-1.1-0.6-0.2-3.1-1.3-3.4-1.8-0.9-1-2.6-1.4-3.7-1.5-0.8-0.6-2.7-4.4-3.5-7.5-1.1-3.4-1.9-7.6-1.9-12v-0.4l-0.4-0.2h0.4c0-4.9-3.2-11-4.1-13.2-0.1-0.1-0.1-0.3-0.2-0.4l4.4-2.2c0 0.4-0.1 0.9-0.1 1.3 0 0.7 0.1 1.5 0.5 2.2 0 0 2.4 6.5 9.6 7.1 0.7 0 6.9 0.3 6.9 0.3h0.2c1.5 0.8 3.3 1.8 5.4 1.8 1.2 0 2.4-0.3 3.5-1.1 0 0 1.9-1 1.9-3.7 0-0.2 0-0.6-0.1-0.9 0.6-0.4 1.4-1.2 1.5-2.6 0-0.4-0.1-0.8-0.4-1.3l-0.5-0.9 2.4-0.4c0.1-0.2 1.9-0.4 2.2-2.1 0 0 0-0.2-0.1-0.4l-0.5-0.5s-3.2-0.6-3.8-0.6c-0.3 0-4-0.6-4-0.6l-1.5 0.2-1.6-0.4c-0.6-1.8-3.7-4-4.7-4.8 0.5-0.2 0.9-0.6 1.2-1 0.2-1 0.2-2.7 0.2-3.5v-0.4s0-0.2-0.1-0.3c1.3-1.9 1.5-4.1 1.5-5.4l3.2 1.7c0.1 0 2.4 1.4 4 1.4h0.1c1.5-0.1 1.9-1.4 1.8-1.8l0.5-0.6c0.7-0.3 1-0.7 1.2-1.1 0.4 0 1.2-0.1 1.8-0.4 0.3-0.2 0.6-0.5 0.8-0.8 0.3 0.2 0.6 0.4 1.1 0.4 0.8 0 1.5-0.8 1.6-1.7 0.5-2.3 2.6-7.3 3-8.5 0.2-0.6 0.4-0.9 0.6-1.1 0.5 0.2 1 0.3 1.6 0.3h0.4c2.3-0.2 2.8-1.9 2.8-2.4 0-0.1 0.5-1.7 0.5-3.3 0-1.7-0.6-3.9-2.8-4.8-0.5-1-2.4-4.3-6-4.4h-0.7c-1-0.7-4.9-3.2-9.2-3.2-0.5 0-1.1 0-1.6 0.1 0.1 0-2.3-0.5-4.9-0.5-2.8 0-6.4 0.4-7.1 3.3-1.6 0.3-6.6 1.1-7.2 3.9-0.3 0-0.7 0.1-0.9 0.3-0.8 0.4-2.3 1.6-2.4 3.4-2.7-1.2-5.3-1.4-6.6-1.4h-0.3-0.5s-3.7-0.4-7.7-0.4c-2.1 0-4.3 0.1-6 0.5-4.7 1.1-10.6 2.2-13.2 3.7-2.6 1.6-4.9 6.2-6.6 7.1-1.9 1.1-5.2 2.4-6.2 6.3-0.1 0.4-0.2 1-0.3 1.6-0.8 0.2-6 2-10.9 10.9 0 0-3.3 4-4.4 4.9-0.7 0.6-0.8 1.5-0.8 2.5 0 1.8 0.6 3.8 1.5 4.8 0.3 0.2 1 1.1 2 2-0.4 0.6-0.9 1.6-0.9 3 0 1.5 0.4 3.4 1.9 5.8-1.5 1.1-4.9 4.5-6.1 14.4 0 0-0.6 12.3-2.2 17-2.9 6.1-9.4 12.8-9.4 12.8-0.1 0.1-0.9 1-0.9 2.4 0 0.8 0.3 1.8 1.3 2.7l4.8 3.4c0.1 0.1 0.2 0.1 0.4 0.1 0 0.2 0.1 0.4 0.1 0.5 0.7 1.2 2.2 1.3 4.1 2 1.7 0.5 3.2 0.8 3.9 0.9 0.3 0.3 0.7 0.4 1.2 0.4 2.9 0.1 4.2 0 5.2 1.2 0.6 0.6 1.2 1.3 2 1.7 0.2 0.1 1 0.3 2.2 0.4-2 1.2-4 3-4.4 5.3-0.1 1.2-0.6 3.3-0.6 5.4 0 3.1 1.2 6.5 6 6.5h0.1l0.5-0.1s2.6-1.4 4.2-2.8c0.2 1.2 0.7 4.4 2.2 6.3 0.1 0.1 0.1 0.2 0.2 0.2-0.1 0.4-0.3 1.7-0.3 3.4 0 2.7 0.6 6.6 3.5 9.6-0.4 0.4-1.2 1.4-1.3 2.8-0.1 1.5-0.1 4.2-1.2 6.6-1.2 2.5-3.4 7.9-3.5 9.9 0 0 0 0.2 0.1 0.4 0.1 0.8 1 2.4 1.7 4 0.4 0.8 0.9 1.6 1.2 2.1 0.2 0.3 0.3 0.5 0.4 0.7 0 0.1 0.1 0.1 0.1 0.2 0.4 0.9 0.9 1.3 1.5 1.7 0.4 0.1 1.4 0.3 1.9 0.3v-0.1l0.2-0.2v0.3h0.1c0.2 0 0.8 0.1 1.1 0.1 0.1 0 0.3 0 0.4-0.1 0.4-0.2 1.5 0 1.9-1.4v-0.7c0.7-0.6 1.6-1.5 1.8-2.7 0.1-0.3-0.2-0.8-0.7-0.9-0.4-0.2-1.5-0.5-2-0.7-0.8-0.3-1.1-0.3-1.1-0.5-0.3-0.5-0.4-0.8-0.4-1v-0.2c0.2-0.4 0.9-1.1 1.4-1.4 0.3-0.3 6.3-4.3 7.2-4.4h0.1c1.2 0.3 3.3 0.8 3.9 1.5 1.1 1 9.4 8 11.5 9 1.7 0.8 9.1 5.3 13.1 5.8 3.6 0.4 10.1 1.8 12.8 2.5 1.4 0.4 3.7 0.8 5.9 0.8s4.6-0.4 6.2-2.2c2.4-2.9 3.8-3.1 4.1-5.5 0.1-1 0.4-3.2 0.4-5.4 0-1.7-0.2-3.5-1-4.8-1.6-2.7-3.1-4.5-3.1-4.5-0.1-0.1-0.1-0.2-0.2-0.2v-0.1c0.1-0.6 0.2-1.2 0.2-1.7 0-2.9-1.6-4.9-1.7-5.4-0.1-0.4-0.9-2.7-1.8-5.6-0.5-1.6-1.1-3.3-1.6-5 0.4-0.4 2.1-1.8 3.8-3.6 0.6 0.6 11.5 12.3 16.1 13.3 0.1 0 0.2 0.1 0.4 0.1 0 0 4.9-0.1 9.5-1.7 3.6-1.2 6-3.4 8.4-3.3 0.7 0 1.5 0.1 2.4 0.6 0 0.1 0.1 0.2 0.1 0.3 0.2 0.5 0.6 0.9 1.1 1.4l0.6 9.1v0.1c0 0.5 0 2.2 1.4 2.7l-1.3 9.1-22.5 5.3c-0.2 0-0.3 0.1-0.4 0.2 0 0-0.1 0-0.1 0.1-0.1 0.2-0.2 0.3-0.1 0.6v5.6l0.5 0.7 22.2 7.5h0.4l40.6-11.9c0.3-0.1 0.5-0.4 0.5-0.7v-5.8c0-0.3-0.2-0.6-0.6-0.7l-23.3-4.8-3.6 0.8-2.6-16.9 0.1-0.1c1-1.3 2.1-3.4 2.1-6.1 0-0.7-0.1-1.6-0.3-2.4-0.8-3.3-1.1-5.1-1.1-6.4 0-1 0.2-1.6 0.4-2.3 0.1-0.7 7.7-9.9 12.8-19.1 0 3.2-0.1 8.5-0.1 10.9v1.3c0 0.4 0.1 1.2 0.1 2.1 0 1.7-0.2 4-0.9 4.8-1.3 1.9-2.7 4.8-2.7 6.6 0 0 0 0.2 0.1 0.5 0 0.4 0.1 1.2 0.1 1.9 0 0.9-0.1 1.7-0.2 2-0.2 0.7-1.6 4.9-1.6 4.9 0 0.1-0.1 0.4-0.1 0.8-0.1 1.1 0.4 3.7 3.3 4 1.4 0.2 3.1 0.3 4.6 0.3 2.1 0 4-0.2 5.2-0.7 1.6-0.9 3-2.3 3.1-3.9 0-0.2 0-0.5-0.2-0.8-0.7-1.4-2-2.2-2.7-3.2-0.7-0.8-1.5-2.5-1.5-3.5v-0.3c0-0.1 0.5-1.7 0.6-2.7v-0.1-0.1c0-0.2-0.1-0.8-0.1-1.4 0-1.2 0.2-2.8 0.5-3.1 0.8-1.1 6.3-9.5 6.3-9.5 0.1-0.1 2.8-4.2 3.7-15.8v-0.1c3-0.2 5.2-0.3 6.2-0.3l-0.2 0.6-2.7 5.8s-4.6 8.8-5.4 11c-0.5 1.3-2.4 5-2.4 10.4 0 2.6 0.5 5.7 1.7 8.9l1.5 5.5c2.5 8.1 3.8 9.4 7.1 9.8h0.2c-0.3 1.1-0.6 2.1-0.8 2.5-0.3 0.7-1 1.9-1.3 3.3-0.2 0.6-0.3 1.3-0.3 2 0 0.2 0 0.4 0.1 0.6 0.2 1.9 0.2 4.2 2.4 4.6 0.3 0.1 0.6 0.1 0.9 0.1 1.2 0 2.5-0.2 3-0.3 0.6 0.2 2.2 0.8 3.3 0.8 0.5 0.1 1.1 0.1 1.7 0.1s1.3-0.1 1.9-0.4c0.7-0.5 2.3-1 3.1-1.7 0.7-0.6 2.8-2.1 2.9-4v-0.1c-0.2-2-3.4-6.2-3.4-6.4v-0.2c3 0.6 11.8 0.9 21 1.4 3 0.2 3.3 0.1 6 0.2 0.4 0 0.9 0.1 1.5 0.1 6.9 0 19.6-1.4 19.7-1.4 0.3 0 0.6-0.3 0.7-0.6 1.1-0.2 0.8-0.5 0.5-0.6m-33.5-127.5c0.1 0 0.1-0.1 0.1-0.1h1.4 1.5c2.5 0 5.9 0.3 9.6 3.1l0.7 0.1 4.9-1.5c0.6-0.1 1.2-0.1 1.8-0.1 6.5 0 9.8 6.1 9.8 9.9 0.1 3.9-5.9 9.7-5.9 9.7l-6.2 5.1c-1.5 2.8-7.3 6-9.7 7.5-14.1-3.9-18-9.7-18-15.4-0.1-8.1 8.1-16.4 10-18.3m-3.6-0.9c0.9 0 1.7 0.2 2.2 0.3-2.6 2.6-10 10.4-10.1 18.7 0 6.3 4.4 12.5 17.7 16.4-1.6 0.8-3.2 1.2-4.8 1.2-0.9 0-1.7-0.1-2.7-0.3-9.3-1.9-18.3-13.6-18.4-13.6-0.1-1.3-0.3-2.5-0.7-3.5 0.1-0.1 0.2-0.3 0.2-0.5 0-0.1 4.7-14.6 13-17.9 1.4-0.6 2.5-0.8 3.6-0.8m-8.1-0.4c1.2 0 2.4 0.1 3.7 0.2-7.8 3.6-12 14.3-13.1 17.8-2-2.9-5.2-3.6-7.2-3.5-1.1 0-1.8 0.1-1.9 0.1h-0.1c-0.7-0.1-1.5-0.1-1.8-0.2-0.3 0-3.7-1.4-4.9-1.5-0.1 0-1-0.3-1.9-0.6-1.2-0.5-2.6-1.1-2.8-1.3-0.5-0.3-0.9-0.3-1.4-0.3h-0.6c0.8-0.9 2.7-2.7 5.1-3.8 0.9-0.2 13.6-6.9 26.9-6.9m-18.4 33.7c-0.4-0.1-0.7 0.2-0.8 0.6 0 0-0.6 3.7-1.5 6.5-0.4 0.9-0.6 1.5-0.6 1.5-0.4 0.7-0.9 1.5-1.3 2.1-2.7 3.7-4.9 4.4-6.2 4.4-0.6 0-1.1-0.1-1.3-0.2l0.8-0.5c0.3-0.2 0.4-0.6 0.2-1s-0.7-0.5-1-0.3l-1.4 0.9-0.2 0.2c-0.7-0.3-1.5-0.6-1.5-0.6l-0.8 0.1-1.4 1.4h-0.2c-1 0.2-2.3-2.9-2.7-4-0.7-1.3-1.9-1.8-2.6-1.9-0.2 0-1.6-0.3-1.7-0.3 0-0.1-3.5-2.8-3.8-3.2-1.6-1.9-2-4.7-2-4.7-0.2-1.3-0.3-2.6-0.3-3.6v-1c0.3-6.2 3.1-8.9 3.1-8.9l2.5-2.2s1.9-1.7 2.2-2c0.2-0.2 2.6-1.1 3.7-1.7 0.2-0.2 1.2-0.4 2.2-0.3h1.3 0.2 0.2c0.8 0 4.3 0.8 4.4 0.9 0.3 0.1 3.3 1.9 3.3 1.9s0.2 0.5 0.2 1c0 0.3 0 0.6-0.1 0.9-0.4 1-2.7 5.2-3.6 6.2-0.5 0.4-0.7 1-0.7 1.5 0 1.2 1 1.9 1.1 2.1 0 0 0.1 0.1 0.1 0.4 0 0.2-0.1 0.4-0.1 0.6s-0.9 0.8-1.3 1.8c-0.2 0.5-0.2 1-0.2 1.6 0 0.8 0.1 1.8 0.4 2.6 0.3 0.6 0.9 0.8 1.3 0.8 1.1 0 2.7-0.9 3-1 0.2 0 0.2 0 0.4-0.1 1-0.2 2.7-0.5 3.4-1.8 0.4-0.2 1.3 0 2.2-0.6 0.8-0.7 1.8-2.4 2.1-2.7 0.5-0.6 1-1.6 1.2-1.7 0.4-0.4 0.7-1 0.7-1.6 0-0.3-0.1-0.5-0.2-0.8 0.1-0.1 0.2-0.2 0.4-0.3 0.5-0.5 0.6-1 0.6-1.5s-0.1-0.9-0.2-1.4c-0.3-0.8-1.7-2.7-1.7-3 0-0.1 0.4-1 0.7-1.6l-0.4-0.3h0.4c-0.3-1.2-1.2-1.4-1.7-1.7 0.1-0.2 0.2-0.6 0.3-1l0.1-0.3s0-0.1 0-0.1h0.6c2.6 0.1 7 0.7 7.4 7.7v1.5 0.7s-1.9 6.3-6.2 7.8c-0.6 0.2-2.1 1.1-2.3 1.3-0.1 0.1-0.1 0.2-0.2 0.2 0-0.3 0.1-0.6 0.1-0.6 0.1-0.3-0.2-0.6-0.6-0.7m-7.2 15.7c-1.4 2.1-2.8 4.2-3.6 5-0.7 0.9-2.3 1.6-3.6 2.2-1.1 0.4-2.1 0.7-2.1 0.7l-13.9 1.6-0.9 0.2c-0.4-1.5-1.6-5.4-2.1-7.9 0-0.2-0.1-0.4-0.1-0.7-0.1-2.6 3.1-6.8 3.5-7 0.8-0.6 1.3-1.7 1.5-2.4 1.3 1.1 3.7 3 3.7 3 0.4 0.1 1.8 0.5 2.3 0.5 0 0 1 0.3 1.3 1.1 0.5 0.7 1.2 4.6 4 4.8 0.2 0 0.4-0.1 0.6-0.1l0.4-0.2 1.3-1.2c0.7 0.2 2 0.9 2.3 1 0.2 0.1 1 0.5 2.1 0.5 1-0.3 2.1-0.5 3.3-1.1m-24.7-23.8v-0.2c0-0.3-0.1-0.5-0.1-0.7v-0.2c1.3-1 1.1-2.7 1.9-3.8 0.3-0.6 0.7-0.9 1.4-1.1 3.3-0.9 2.5-3.8 3.7-3.7 1.9-0.6 3.9-2 4.3-2.1v0.1-0.1l0.1 0.1c1.1-0.1 3.6-1.1 4.1-1.2 0.3-0.1 1.2-0.2 2-0.3 0.6-0.1 1.1-0.1 1.5-0.1h0.4 0.2c0.5 0.3 1.8 0.9 3.1 1.4 0.9 0.4 1.7 0.6 2.3 0.7 0.6 0 4 1.4 4.9 1.6 0.3 0 0.9 0 1.4 0.2 0.1 0 0.3 0.1 0.4 0.1-0.1 0.2-0.4 0.6-0.4 1.3-0.1 0.3 0.2 0.8 0.5 0.9 0.2 0.1 0.6 0.2 0.9 0.5 0.2 0.1 0.3 0.2 0.4 0.3 0 0-0.6 0.7-0.7 1.6 0 0 0 0.2 0.1 0.4 0.2 0.8 1.5 2.6 1.7 3.1 0.1 0.2 0.2 0.6 0.2 0.9s-0.1 0.4-0.1 0.4c-0.3 0.3-0.8 0.4-1 1.4 0 0.2 0.2 0.5 0.3 0.7v0.1s-0.2 0.5-0.2 0.6c-0.5 0.5-1 1.4-1.3 1.8-0.4 0.5-1.6 2.3-1.9 2.5 0 0.3-1.8-0.2-2.6 1.3l-0.2 0.1c-0.4 0.3-1.6 0.7-1.9 0.7h-0.2-0.1c-0.9 0.2-2.3 1-2.9 0.9v0.1c-0.2-0.5-0.3-1.3-0.3-2 0-0.5 0.1-1.1 0.1-1.2 0.1-0.4 0.9-0.9 1.3-1.8 0.1-0.3 0.2-0.7 0.2-1.1 0-0.5-0.1-0.9-0.4-1.3-0.3-0.3-0.8-0.9-0.7-1.2 0-0.2 0-0.2 0.2-0.5 1.4-1.4 3.5-5.5 4-6.8 0.2-0.4 0.2-0.9 0.2-1.3 0-0.9-0.2-1.5-0.6-2-0.6-0.6-3.2-1.9-3.9-2.3-0.7-0.3-3.9-0.9-5.1-1h-0.5-1.3c-1 0-2.1 0-2.9 0.6-0.8 0.5-3 1.3-3.7 1.7-0.6 0.4-2.4 2.1-2.4 2.1l-2.5 2.2c-0.1 0.1-3 2.9-3.5 8.8-0.1-0.1-0.2-0.4-0.2-0.6v-0.1c0.1-0.4 0.1-0.7 0.1-0.7 0-0.6-0.2-1.3-0.3-1.8m35.9-37.8s2.2 3.9 2.2 5.5c-1.6-1.1-3.3-2-5.3-2.8-0.4-0.1-0.8 0-1 0.4-0.1 0.4 0 0.8 0.4 1 2.2 0.9 4.3 2.1 5.9 3.3 2.4 1.7 3.7 3.3 4.3 4.1-9.3 1.5-17 5.2-19.1 6.2-6.5-4.7-7.2-9.2-7.2-11.3 0-0.6 0.1-0.9 0.1-0.9 0.3-0.4 0.6-0.7 0.9-1.1 0.6-0.8 0.7-1.9 0.7-2.8 0-1.1-0.2-2.2-0.2-2.5 0-0.1 0.3-1 0.9-1.5 1.2-1.2 0.9-3.5 1.1-4.1-0.1 0 0.5-0.5 1.2-1.1 0.2-0.4 0.3-0.7 0.3-1.2 0-1.2-0.5-3-0.6-3.5v-0.1c0-0.4 0.1-0.6 0.2-1 1.2 0.6 9.7 4.2 15.2 13.4m-39.3-28.8c0.1 0 0.2-0.2 0.3-0.2v-0.1c1.2-1.3 2.6-2.7 3-3.1 0.3-0.3 5.2-1.6 5.4-1.6 0.1 0 0.4-0.1 0.9-0.1 1.8 0 5.4 0.3 7.4 2.5l0.4 0.2c0.1 0 3.4 0.3 4 2 1 2.2 2.8 5.8 2.8 6.6v0.2c-0.1 0.7-0.7 1.6-0.8 2.7v0.3 0.1c0 1-0.3 3.8-0.5 4.4-0.1 0.2-0.1 0.3-0.2 0.4-0.2 0.6-0.5 1.3-0.5 2 0 0 0 0.2 0.1 0.5 0.1 0.7 0.6 2.4 0.6 3.3 0 0.2-0.1 0.2-0.1 0.2-0.3 0.5-1.2 0.8-1.4 2 0.1 0.5-0.2 3-0.5 3-0.9 0.7-1.3 1.7-1.4 2.4v0.1c0 0.5 0.2 1.4 0.2 2.6 0 0.8-0.1 1.6-0.4 1.9-0.2 0.3-0.5 0.6-0.7 0.7-0.3 0-0.9 0-1.4 0.5l-0.8 0.5-0.3 0.4-0.4 1.6c-0.1 0.2-0.1 0.6-0.2 0.8-0.4-0.5-0.8-1.2-1.1-1.6l1.4-5 0.7-6.7v-0.3l5.1-8.1c0.1-0.4 0.1-0.5 0.1-0.5-0.1-1.2-0.4-3.6-1.4-4.6-0.5-0.4-2.4-2.7-2.3-2.9-0.1-0.8-0.7-3.2-0.7-3.2-0.1-0.3-0.2-0.5-0.4-0.5-0.2-0.1-0.5 0-0.7 0.1 0 0-3.8 3.2-4.5 3.5 0 0-0.4 0.1-0.8 0.1-1.1 0-2.6-0.3-3.2-0.3h-0.1c-1 0.1-2.7 0.4-3.4 1.7-0.4 0.7-1.9 3.5-2.2 3.9-0.6 1-1 3.5-1 5.1 0 0.5-0.2 0.9-0.6 1.4-0.3 0.5-0.6 0.9-0.9 1.5-0.1 0.3-0.2 0.6-0.2 1 0 0.9 0.3 1.6 0.5 2.7v1.1c0 1.3-0.2 2.9-0.3 3.4 0 0-0.1 0-0.2 0.1-0.2 0.1-0.5 0.1-0.7 0.1h-0.2c-0.3 0-0.6 0.1-0.9 0.2 0.1-0.4 0.2-0.8 0.2-1v-0.2c-0.1-1.1-1.4-3.7-1.6-4.6-0.3-0.8-1.2-7.8-1.2-9.4v-0.1c0-1.3 1.6-5.7 1.8-6.7 0.1-0.6 1.3-4.1 2-5.4 0.2-0.3 0.7-1 1.3-1.6m13.3 18.4s0.4 0.2 0.9 0.5l-0.1 0.4c-0.1 0.4 0.1 0.8 0.5 0.9s0.8-0.1 0.9-0.5v-0.3c0.5 0.2 1.1 0.3 1.7 0.4l-2 3.1c0 0.1-0.1 0.1-0.1 0.1-3.5 2.7-7.9 2.8-8.7 2.8h-0.2c-2.3-0.5-4.2-6.5-4.2-6.5s0-0.1-0.1-0.1c0.2-0.4 0.4-0.9 0.4-1.5 0-1.1 0.6-4.1 0.7-4.2 0.4-0.7 1.9-3.2 2.4-4.2 0-0.4 1.5-0.9 2.1-0.9 0.5 0 2.1 0.3 3.3 0.3 0.5 0 1 0 1.5-0.2 0.7-0.4 2.6-2 3.8-2.9 0.1 0.7 0.4 1.7 0.4 2 0.3 1.3 2 3 2.7 3.8 0.2 0 1 2.9 0.9 3.4v0.2l-2.2 3.5h-0.1c-2-0.1-4-1.3-4-1.3-0.3-0.2-0.8-0.1-1 0.3 0 0.2 0.1 0.7 0.5 0.9m-30 10.4c0.1 0.8-1.6 0.7-4 2.2-0.7 0.5-1.5 0.6-2.2 0.6-0.8 0-1.4-0.2-2-0.4-0.5-0.2-0.8-0.4-0.8-0.4s-4.4-4.2-4.5-4.4c-0.3-0.4-0.7-0.6-1.1-0.6-0.5 0-0.9 0.2-1.2 0.6l-0.2 0.2v-0.1c-0.1 0.1-0.5 0.1-1.1 0.1h-0.1c-1 0-1.5-0.4-1.8-0.8 0.5-0.3 1.6-0.8 1.6-0.8 0.1-0.1 2.7-1.6 5.2-1.7 0.4 0 0.8-0.1 1.2-0.1 0.7-0.1 1.2-0.1 1.8-0.1 0.9 0 1.6 0.2 2.7 0.8l2.5 1.5 0.1 0.1 0.8 1.4c0.2 0.4 0.6 0.5 1 0.3 0.3-0.3 0.5-0.7 0.2-1 0 0-0.6-1-1.1-1.8-0.3-0.5-0.6-0.9-0.6-0.9-0.1-0.2-0.1-0.3-0.1-0.3 0-0.2 0-0.2 0.2-0.4h0.1 0.3c0.1 0.1 0.2 0.1 0.2 0.1 0.1 0 0.7 0.8 1.7 1.6 1 0.9 0.3-0.6 1.2 2.9 0.1 0.5 0.1 0.8 0.1 1.1v0.3zm5.2-2.5c-0.3 0.4-0.7 0.7-1 0.9-0.6 0.3-1.8 0.6-2.7 0.8 0-0.3-0.1-0.6-0.2-1-0.6-3-0.9-3.2-1.7-3.7-0.9-0.6-1.4-1.3-1.6-1.6-0.3-0.2-0.7-0.4-1.5-0.4-0.4 0-0.9 0.1-1.2 0.7-0.3 0.4-0.4 0.8-0.4 1.2v0.1l-0.8-0.5c-1.2-0.8-2.4-1-3.5-1-0.4 0-0.7 0-1.1 0.1 0.1-1.2 0.4-3.9 0.9-4.2 0.8-0.7 2.4-1.9 3.8-2.1 0.2 0 0.4-0.1 0.6-0.1 0.3 0 0.6 0.1 0.9 0.1 2.1 0.9 8.1 3.7 9.4 6.8 0.4 1 0.6 1.7 0.6 2.4-0.1 0.6-0.3 1.1-0.5 1.5m4.7 17.2c0.1-0.1 2.1-3.2 2.1-8.8 0-2.5-0.4-5.4-1.6-8.8v-0.1l-2.1-8.3c-0.1-0.4-0.4-0.6-0.9-0.5-0.4 0.1-0.6 0.5-0.5 0.9l1.5 5.8c-0.6 0.1-1 0.4-1.5 0.7 0-0.8-0.2-1.6-0.7-2.6-1.8-4-8-6.7-10.1-7.6-0.5-0.2-0.9-0.3-1.4-0.3h-0.1c0-0.1 0-0.1-0.1-0.2 0 0-0.6-1.1-0.6-2.7 0-1.4 0.4-3.1 2-4.9 3.7-4.4 4.7-4.8 6-4.9 1.6-0.2 4.3-0.6 4.3-0.6 0.3-0.1 2.7-1.8 5.6-1.7 1.1 0 2.1 0.2 3.3 0.8-0.4 0.5-0.8 1-1 1.3-0.9 1.6-2 4.9-2.2 5.8-0.1 0.7-1.8 5.1-1.9 6.9 0 1.8 1 8.7 1.4 9.9 0.3 1 1.6 3.9 1.5 4.2v0.1c-0.1 0.4-0.4 2.4-0.4 2.4-0.1 0.3 0.1 0.6 0.3 0.7 0.2 0.2 0.5 0.2 0.8 0.1 0 0 0.3-0.2 0.8-0.5l0.6-0.3c0.2-0.1 0.2 0 0.2 0h0.1 0.1c0.4-0.1 1.7 0.1 2.2-1.3 0.1-0.7 0.4-2.3 0.4-3.7 0-0.4 0-0.9-0.1-1.3-0.2-1.2-0.4-2-0.4-2.5 0-0.2 0-0.3 0.1-0.5 0-0.1 0.1-0.2 0.2-0.3 0.6 1.8 2.2 5.6 5.2 6.5h0.3c0.8 0 4.8-0.1 8.5-2.4l-0.5 5.3-1.5 5.2 0.1 0.6c0.1 0.1 1.1 2.3 2.3 2.9h0.2 0.1c0.1 0 0.2 0 0.4-0.1 0.9-0.5 0.7-1.2 1.1-2 0.2-0.6 0.3-1.2 0.4-1.4l0.6-0.4v0.5c0 2.4 0.9 7.2 7.2 12-3.2 1.7-5.2 4.3-5.3 4.4s-0.1 0.3-0.1 0.5c-0.6 0.1-1.2 0.1-1.4 0.2-0.9 0.2-3.4 1.2-3.9 1.2h-0.1c-1.4 0.2-2.8 1.6-4.7 2.1-2.7 1.2-1.5 3.5-3.5 3.7-1.1 0.3-1.9 1-2.4 1.8-0.8 1.6-1.1 3.3-1.3 3.3-0.5 0.2-0.8 0.8-0.8 1.2l-8.2-3.9c0-0.2-0.1-0.5-0.1-0.7 0 0 0-0.3 0.1-0.4 0.1-0.4 0.2-0.7 0.2-0.9 0-0.9-0.4-1.6-0.7-2.1 0.2-0.2 0.2-0.3 0.2-0.6v-0.1c-0.2-1.2-1.2-1.8-1.8-2.2v-0.3c0-0.4-0.1-0.8-0.2-1.3-0.3-0.5-0.7-2.5-0.7-2.5 0-0.1-0.1-0.4-0.1-0.8 0-0.7 2.5-6.3 2.5-6.5m-14.9-4.9c0.1 0 2.4 0.4 2.9 1.4 0.3 0.3 2.3 1.4 2.2 1.8 0.9 1.8 2.4 1.2 2.3 2.4v0.3l0.4 0.7s1 0.8 1 1.3l0.5 0.6s1 0.3 1.4 1.8c0 0.2 0.4 1.7 0.4 1.7 0 0.2 0.4 2.1 0.9 3 0 0.1 0.1 0.3 0.1 0.5v0.6c0 0.2 0 0.6 0.5 0.8 0 0 0.4 0.3 0.8 0.7 0.2 0.1 0.3 0.3 0.4 0.4-0.2 0-0.2 0.1-0.2 0.1-0.3 0.3-0.3 0.7 0 1.1 0 0 0.8 0.9 0.8 1.7 0 0.2 0 0.3-0.1 0.4-0.1 0.3-0.2 0.6-0.2 0.9 0 0.9 0.2 1.5 0.2 2 0 0.4-0.1 0.7-0.7 1.2-0.1 0.1-1.3 1.3-2.3 1.7-0.6 0.2-1.2 0.3-1.6 0.3-0.1 0-0.1-0.1-0.1-0.1-0.1-0.2-0.3-0.6-0.5-0.9-0.6-1-1.8-1.1-1.9-4.3v-0.3c1-0.5 2.1-1 2.9-1.7 0.5-0.5 0.5-1 0.5-1.5 0-1.2-0.6-2.9-0.7-3.3v-0.2c-0.1-0.9-0.6-4.7-0.6-5.1 0-0.1-0.1-0.1-0.1-0.2l0.2-0.4-0.2-0.8-2.1-1.4c0-0.1 0.1-0.2 0.1-0.2-0.1-0.6-0.4-1.7-1.5-2.6-1-0.9-2.3-1.7-2.6-1.9-0.2-0.2-1.9-1.6-1.9-1.6-1.2-0.4-2.1-0.6-2.9-0.6 0.6-0.1 1.4-0.3 1.7-0.3m4.9 53.6c0.1 0 3.1 1.9 3.3 2.9 0.2 0.5 0.3 1.2 0.3 1.9 0 1.2-0.3 2-1.6 2.5 0.1 0-0.7 0.1-1.6 0.2-0.5 0.1-1.1 0.1-1.5 0.1-0.1-0.5-0.5-1.1-1.3-1.4-0.3-0.1-0.7-0.2-1.1-0.2-0.5 0-1.2 0.2-1.8 0.6s-3.4 2.1-3.9 2.3c-0.7 0.3-2 0.1-2.7 1.3-0.1 0.2-0.4 1-3.1 2.5l-9.5 2.1c-1.9-3.2-6.9-10.4-7.4-11v-0.1c-0.2-0.3-0.5-0.6-0.9-0.8v-0.1s-0.3-1.3-0.3-2.7c0-1.2 0.3-2.1 0.7-2.2 0.2-0.1 0.3-0.2 0.5-0.4 0.3-0.3 1-0.9 1.4-1.4 0.6-0.7 2.2-2.4 2.5-2.2 1.3-0.2 2.2-1.1 2.9-1.9 0.6-0.7 2.2-2.6 4.2-2.6 0.2 0 0.4 0 0.6 0.1 2.9 0.4 9.7 0.9 9.9 1.2 1.1 0.7 4.5 3.3 5.8 3.6 0.3 0 0.8 0 1.4 0.1 1 0.2 2.1 0.6 2.5 1.9 0.3 0.3 0.8 0.8 0.8 1.5 0 0.3-0.1 0.7-0.5 1.3-0.1 0.2-0.1 0.4-0.1 0.6 0.3 0.1 0.4 0.3 0.5 0.3m-7.9 18.8c-0.2 0.3-0.5 0.7-0.6 0.7-0.2 0-0.5 0.1-0.6 0.2l-0.3-0.3-1-0.8c-0.3-0.3-0.8-0.2-1 0.1s-0.2 0.8 0.1 1l0.9 0.7c-0.1 0.1-0.1 0.1-0.2 0.1-1.2 0.4-1.2 1.1-2 1.2-0.4 0.1-0.7 0.1-1.2 0.1-2 0-4.8-1.3-5.4-2.1-1-1.2-2-3.2-2-3.2-0.1-0.4-0.6-0.5-0.9-0.3-0.3 0.1-0.5 0.6-0.3 0.9 0 0 0.2 0.3 0.3 0.6-0.1 0-0.2 0-0.3 0.1l-0.8 0.6c-0.2-0.8-0.3-1.6-0.6-2.4l9.3-2.1c2.9-1.5 3.7-2.6 3.9-3.2 0.3-0.2 1.2-0.4 1.8-0.6 1-0.4 3.4-1.9 4.3-2.5 0.4-0.2 0.6-0.4 0.9-0.4 0.2 0 0.4 0 0.7 0.1 0.1 0 0.3 0.7 0.4 0.9-0.5 2.3-2.1 3.2-2.1 3.2l-0.4 0.7s-0.1 3.7-0.2 5.1c0 0.2-0.1 0.3-0.8 0.3-0.4 0-0.8-0.1-0.9-0.1-0.1-0.1-0.5-0.2-0.8-0.3-0.2-0.1-0.4-0.2-0.5-0.3-0.1-0.3-0.3-0.6-0.7-0.6 0 0-0.7 0.2-0.7 0.7 0.5 1.3 1.2 1.7 1.7 1.9m-1.3-49.4c-0.1-0.7-0.4-1.3-0.6-1.9 1.7 0.5 5.3 1.2 10.4 1.3 0 3.4 2.1 4.7 2.1 4.9-1.5 4.4-6 5.4-9.5 5.4-1.6 0-2.9-0.2-3.5-0.3 1-2.1 1.3-4.6 1.3-4.7 0.1-0.6 0.1-1.2 0.1-1.7 0.1-1-0.1-1.9-0.3-3m9.3-16.7c-0.4-0.2-0.9-0.5-1.2-0.6-0.4-0.2-0.4-0.3-0.4-0.3 0-0.1 0.1-0.2 0.2-0.4 0.3 0.2 0.6 0.4 0.8 0.6 0.3 0.2 0.4 0.5 0.6 0.7m-7.5-4.4c0.8 0 1.6 0.1 2.7 0.4-0.1 0.1 1.4 1.3 1.7 1.6 0.1 0.1 0.3 0.2 0.5 0.3-0.2 0.3-0.5 0.7-0.5 1.3 0 0.7 0.5 1.3 1.3 1.6 1.2 0.5 3.4 2 4.3 2.6-0.2 0.4-0.7 1-1.9 1.6-0.3 0.2-0.5 0.6-0.2 1 0.1 0.2 0.3 0.4 0.6 0.4 0.1 0 0.2 0 0.3-0.1 0.6-0.3 1.1-0.7 1.5-1 0.1 0.5 0.1 1 0.2 1.5-0.1 0-0.2 0-0.3 0.1-1.1 0.7-3.3 1.3-3.3 1.3-0.4 0.1-0.6 0.5-0.6 0.9 0.1 0.4 0.5 0.6 0.9 0.5h-0.1c0.1 0 2.1-0.4 3.6-1.3 0.1 0.5 0.1 0.8 0.1 0.8v0.1 0.1c0.1 0.7 0.7 2.2 0.7 3.3 0 0.4-0.1 0.4-0.1 0.4-0.8 0.6-2.1 1.3-3.2 1.8-6.9 0-10.8-1.4-11.4-1.6-0.5-1.4-0.7-2.7-0.7-3.5v-0.1-0.3c0-1.5-0.8-3.2-1.5-4.2-0.8-1-1.5-1.8-1.5-3.1v-0.5c0.1-1.8 2.1-4.8 2.4-4.8 1-0.4 2.2-1.1 4.5-1.1m-15.6 18.7c0.3-0.8 0.1-0.4 0.5-3.2 0.3-2.6 3-10.6 3-10.6 0.6-1.2 2.4-2.5 2.4-2.5 1.4-2.5 3-2.8 4-2.8 0.4 0 0.7 0.1 0.7 0.1h0.4c0.2-0.1 0.3-0.1 0.5-0.2l-0.8 0.4c-1.5 0.7-2.9 3.5-3.3 5.8v0.7c0 1.9 1.2 3.1 1.8 3.9s1.3 2.4 1.2 3.4v0.2c-0.1 0 0 0.2 0 0.2 0 1.5 0.4 3.6 1.3 5.6 0.2 0.5 0.4 1.2 0.6 1.9 0.3 1 0.3 1.8 0.3 2.5 0 0.5 0 1-0.1 1.5 0.1 0-1.3 5.8-2.3 6-0.2 0.1-1 0.2-1.9 0.2-1.5 0-3.4-0.2-5-0.5-0.8-0.1-1.5-0.4-2-0.6-0.4-0.2-0.5-0.3-0.6-0.3-0.6-1.6-1.7-2-4.5-4-0.4-0.3-0.4-0.5-0.5-0.9 0.1-2 3.6-5.4 4.3-6.8m-4 9c2.6 1.8 3.2 2.1 3.5 3.1 1.1 1.9 5.6 2.2 8.9 2.3 1.1 0 1.9-0.1 2.5-0.3 0.4-0.2 0.8-0.6 1.1-1.1 0 0 1.9 0.4 4.3 0.4h0.1c0.9 0 1.8-0.1 2.7-0.2l0.2 12.6h-0.7c-0.1 0.1-4.3-2.6-5-3.3-1.5-0.9-7.6-1-10.5-1.5-0.3-0.1-0.6-0.1-0.8-0.1-3 0-4.7 2.4-5.3 3.1-0.6 0.6-1.5 1.3-2 1.4-1.5 0.2-2.7 2.1-3.4 2.7l-1.4 1.4c-0.2 0.2-0.3 0.2-0.3 0.2-1.3 0.6-1.4 2.2-1.4 3.5 0 0.6 0.1 1.2 0.1 1.7-0.5-0.3-1-0.5-1.5-0.8-0.2-1.7-0.3-3.3-0.3-4.8 0-13.4 7.4-19.1 9.2-20.3m-17.4 23.7c1.9 0.6 7.8 2.3 10.5 4.1l0.1 0.1c0.4 0.3 0.7 0.5 0.9 0.8 0.8 1 7.2 10.3 7.7 11.7-4.3-4.4-11.9-7.3-12-7.4-0.4-0.1-0.8 0.1-0.9 0.4-0.2 0.4 0 0.8 0.4 0.9 0 0 11.7 4.8 13.4 10 0.2 0.9 0.4 1.5 0.4 1.5 0 0.1 0.7 2.6 0.7 2.8-0.2 2.7-1.6 10.8-7.4 12.3 0.9-1.9 1.6-4.1 1.6-6.6 0-3.5-1.4-7.4-5-12-0.2-0.3-0.7-0.4-1-0.1-0.3 0.2-0.4 0.7-0.1 1 3.5 4.4 4.6 8 4.6 11.1 0 2.7-0.9 5-2 7-1.5 2.4-5.5 5.6-11 6.4h-0.4c-2 0-3.4-0.6-4.3-1.2s-1.4-1.1-1.4-1.1c-0.1-0.1-0.2-0.2-0.3-0.2 0.9-1.9 1.9-4.2 2.2-5.7 1.4-0.2 5-0.9 5.4-3.7 0.1-0.5 0.1-1.1 0.1-1.9 0-2.7-1.8-6-12.5-10.1 1.2-1 3.9-2.7 8.5-2.7 0 0 3-0.1 5.3-0.1 0.4 0 0.7-0.3 0.7-0.7s-0.3-0.7-0.7-0.7c-2.4 0-5.3 0.1-5.3 0.1-6.9 0-10.1 3.5-10.3 3.9-0.6 0.4-4.6 3.2-6.7 7.7-1 2.2-2.1 4.7-2.9 7.5-3.3-2.1-10.2-9.2-13.3-12.5-1-1.1-1.6-1.7-1.6-1.7-0.3-0.3-0.7-0.3-1-0.1-0.3 0.3-0.3 0.7-0.1 1 0 0 0.4 0.4 1 1.1-0.9 0.4-2.5 1.3-4.1 2.3-0.4-0.2-1.3-0.8-2.4-1.6-0.6-0.5-0.7-0.8-0.7-2 0-0.6 0.1-1.3 0.1-2.2 0-0.5 0-1.1-0.1-1.7v-0.2c-0.3-2.9 6.1-4.6 7.8-4.8 1.9-0.2 9-2 9-2l3.2-1.4s0 0.1 0.1 0.1h0.2c0.2-0.1 0.3-0.2 0.4-0.3l2.8-1.2c0 0.1 0.2 0.1 0.2 0.2 0.6 0.6 1.4 1.6 2.2 2.2 0.7 0.6 1.5 0.6 2.2 0.6 0.4 0 0.8-0.1 1.1-0.1 1.2-0.2 2.5-1.2 2.6-1.2 1.1-0.7 0.7-2 0.9-2.6 0-0.6 0.4-2.6 0.5-3s0.6-1.7 0.7-2.1c0.3-0.3 1.3-0.7 1.9-0.9 0.4-0.3 0.9-0.6 0.9-0.6h0.1c0.1 0 0.4 0.2 0.6 0.2 0.3 0.1 0.6 0.3 0.6 0.3 0.2 0.1 0.9 0.3 2.1 0.3 0.7 0 1.7-0.1 2.7-0.4 0.4-0.3 0.9-0.5 1.1-0.8m-9.7 59.1c0.6 0.1 3.5 1.9 3.6 2.1 0.3 0.2 2 2 2 2 0.4 0.8 1 1.2 1.1 1.3 0.7 0.3 2 1.3 2.1 1.3 0 0.1 3 3.7 3.3 4.1 0.1 0.1 0.2 0.2 0.2 0.4h-0.1l-4-2.5-3.2-1.2c-0.3-0.1-0.7 0-0.9 0.3s-0.1 0.7 0.2 0.9c1.1 0.9 2.6 3.7 2.6 3.7s1 2.3 1.5 3.5c0.1 0.2 0.1 0.4 0.1 0.4 0 0.2 0 0.2-0.4 0.4-0.2 0-0.7-0.5-0.7-0.5l-1.6-2.8-3.4-4.5-0.1-0.1c-0.3-0.2-0.7-0.2-1.1 0.1-0.2 0.2-0.2 0.5-0.1 0.7l0.6 2 0.8 1.9 0.8 2.9s0.6 2.1 0.8 2.6c0 0-0.1 0-0.1 0.1-0.3-0.1-0.7-0.2-0.7-0.2l-3-6.7v-0.1-0.1h-0.1c-0.1-0.1-0.3-0.1-0.4-0.1-0.4 0-0.7 0.2-0.7 0.6 0 0-0.1 0.7-0.1 1.6 0 0-0.2 0.4-0.7 0.6-0.5 0.4-1.1 0.6-1.2 0.6-0.4 0.1-1.2 0.2-1.8 1v-0.1c0-0.3 0.1-0.6 0.1-0.6l0.1-0.1c0.4-0.2 1.1-0.6 1.5-1 0.2-0.3 0.2-0.6 0.2-0.8 0-0.8-0.4-1.8-0.6-2.2-0.5-1-2.5-2-2.6-2.2-0.3-0.3-2.6-2.2-2.6-2.2-1.5-1.1-2.4-5.1-2.8-9.8v-0.4c-0.3-3-0.3-6.2-0.4-9.2v-1.2c0-3.4 0.5-6.5 1.2-9.2 0.8-3.1 1.9-5.7 3-8.1 1.7-3.6 5.1-6.3 6.1-7 11.3 4.2 12.3 7.1 12.3 9 0 0.6-0.1 1.2-0.1 1.8 0.2 1.5-4.7 2.5-4.7 2.5-0.4 0.1-0.6 0.4-0.7 0.7 0 1.1-1.6 4.5-2.6 6.5-0.5 1-0.8 1.7-0.8 1.7l-2.1 4.4c0 0.1-3 6.9-3.2 8.6-0.1 0.1 0 0.2 0 0.2-0.1 2.2 2.7 2 3.4 2.4m-46.3-50.9h0.6c0-2.8-2-13.6-2-20.8 0-6.8 3.9-11.1 4.3-11.5 1.7 0.1 3.5 0.1 5.2 0.1 7.9 0 14.6-0.9 16.4-1.1 0.7 2.6 1.6 4.5 2.4 5.9l-0.1 0.1s-0.1 1.1-0.1 3c0 2.3 0.2 5.9 1.1 10.2 1.3 6.3 3 12 3.5 13.9l-2.8 1.2c0.1 0-7.1 1.7-8.8 1.9-1.8 0.3-8.8 1.4-9 6.2v0.3 1.6 2.2c0 1.2 0.2 2.4 1.2 3.2 0.8 0.6 1.5 1.1 2 1.4-0.9 0.6-1.7 1.3-2.3 2-1.6 1.9-3 3.9-3.6 5.9-1.2-0.8-4.3-2.9-5.4-3.1-0.3 0-1.6-0.2-3-0.4v-0.2c-1-2.4-1.2-4.6-1.2-6.7 0-2.6 0.5-4.7 0.8-6.1 0.8-3.8 1.4-7.6 1.5-9.2h-0.7zm34.7-1.6-2.1 0.9c-0.6-2.1-2.2-7.6-3.5-13.6-0.9-4.2-1.1-7.7-1.1-10v-1.1c0.3 0.4 0.6 0.8 0.6 1 0.8 1.5 4.8 6.9 4.9 7 0 0 2.6 7 2.5 7.1 0.1 0-1.4 2.3-1.9 4.8-0.1 0.4-0.1 0.7-0.1 1.1 0.1 1.1 0.3 2.1 0.7 2.8m30.1-49.1c0.1 0.3 0.4 0.7 0.5 1-0.4 0.2-1.5 0.6-2 0.5h-0.2l-0.8-0.4c-0.3-0.2-0.8 0-1 0.4-0.1 0.3 0 0.8 0.3 0.9l0.8 0.4c0.3 0.1 0.6 0.1 0.9 0.1 1.2 0 2.4-0.6 3-0.9 0.3-0.3 0.5-0.6 0.5-0.9 0-0.4-0.2-0.8-0.4-1.1l0.4-0.1s3.3 0.5 3.9 0.6c0.2 0 1.6 0.2 2.6 0.4h-0.1c-0.3 0.2-0.7 0.3-0.7 0.3l-3.3 0.5c-0.2 0.1-0.4 0.1-0.5 0.4-0.1 0.2-0.1 0.4 0 0.7l1.1 1.7c0.1 0.2 0.1 0.4 0.1 0.5 0.1 0.7-1.2 1.6-1.2 1.6l-0.3 0.7c0.1 0.4 0.1 0.8 0.1 1.1 0 2-1.2 2.4-1.2 2.4-1 0.7-1.9 0.9-2.8 0.9-1.8 0-3.7-1-5.2-1.9-0.6-0.3-1.1-0.6-1.6-0.9-1.2-0.5-1.3-1.2-1.3-2.4v-1.9-0.4c0-1.9 0.8-3.6 1.3-4.2 0.2-0.3 2.2-1.2 2.9-1.5l2.1 0.6 2.1 0.9zm-3.1-2.3-1.1-0.3h-0.3c-0.1 0.1-2.8 0.9-3.7 2.1-0.7 0.9-1.6 2.7-1.6 5.1v0.2c-0.1 0 0 0.1 0 0.1v2c-0.1 1.1 0.2 2.4 1.3 3.3-1.8-0.1-3.9-0.2-4.2-0.2-6.3-0.4-8.4-6.3-8.4-6.3-0.2-0.4-0.3-1-0.3-1.6 0-0.9 0.2-1.9 0.3-2.1l3.7-1.9c-0.1 0.1 6.5-2.2 10.1-3.8l0.1-0.1c0.1 0.1 0.1 0.2 0.2 0.3 0.1-0.2 2.7 1.9 3.9 3.2m-2.9-9.9c-0.3 0.4-0.7 0.8-1.2 1l-3.7 2.5c-0.3 0.3-0.4 0.6-0.2 1 0.2 0.3 0.7 0.4 1 0.2l3.7-2.4c0.2-0.1 0.3-0.2 0.5-0.4 0 0.8-0.1 1.7-0.2 2.2-0.3 0.2-1 0.6-1.9 1-3.5 1.6-10.1 3.9-10.1 3.9l-4.5 2.2-4.9 2.4c2.7-2.9 3.8-7.9 4.6-10.1 0.7-2 1.8-2.2 3.6-3.1 1.1-0.6 2.4-1.9 3.8-3.7 0.2 0.2 0.4 0.2 0.6 0.2l10.3-2.7v0.7c0.2 1.2-0.1 3.5-1.4 5.1m20.9-17c-0.4 1.1-2.5 6.1-3.1 8.6l-0.2 0.7-0.4-0.2c-0.1-0.1-0.3-0.2-0.3-0.2-0.2-0.2-0.6-0.3-0.8-0.1-0.1 0-0.1 0.1-0.2 0.1l-1 1c0 0.1-0.7 0.1-1.1 0.1l-1.2-1.3c-0.2-0.3-0.7-0.3-1 0-0.4 0.2-0.4 0.7-0.1 1l1 1.1-0.3 0.3v0.1c-0.8 0.3-1.4 0.8-1.6 1.8-0.1 0.5 0.2 0.3-0.4 0.5-0.7 0-3.3-1.3-3.3-1.3l-4.2-2.2-0.6-0.3-0.5-0.1-10 2.6c0.7-1.2 1.3-2.6 1.8-4 0.4-1.2 0.6-2.6 0.6-3.9 0-0.8-0.1-1.5-0.2-2.2 0.2 0.3 0.4 0.5 0.4 0.6 0.3 0.9 1.1 0.9 1.6 0.9 0.8 0 1.6-0.2 2.3-0.1 0.4 0 0.6 0 0.7 0.1 0.6 0.3 1.1 0.3 1.8 0.3 1.8 0 4.2-0.6 4.2-0.6 2.5-0.1 4.2-1.9 4.9-2.3 0.8-0.6 2.3-1.8 2.6-1.9h0.1 0.1 0.3c0.7 0 1.4-0.3 2.2-1.1 0.7-0.7 0.9-1.7 1-2.5l1.9 1.4c2 1.3 2.7 1.3 3.6 1.7-0.2 0.6-0.4 1-0.6 1.4m-32.5-10s0.2-0.1 0.5-0.1c0.3-0.1 0.6-0.1 0.6-0.1 0.4-0.1 0.6-0.4 0.6-0.8v-0.3-0.1c0-0.4 1.4-1.4 3.1-1.9s3.5-0.8 3.5-0.8c0.4 0 0.6-0.3 0.6-0.7 0-1.7 2.7-2.5 5.7-2.4 2.5 0 4.8 0.4 4.8 0.4 0.7-0.1 1.2-0.1 1.7-0.1 2.2 0 4.3 0.8 6 1.6 1.6 0.8 2.7 1.6 2.7 1.6l0.6 0.1c0.3 0 0.5-0.1 0.7-0.1 3-0.1 4.8 3.9 4.8 3.9l0.5 0.4c1.6 0.5 2.1 1.9 2.1 3.5 0 1.4-0.4 2.7-0.5 3.1-0.2 0.5 0.3 0.7-1.6 1.2h-0.3c-0.4 0-1-0.2-1.6-0.4-1.9-0.8-1.9-0.4-4.2-1.9l-2.9-2.2c-0.2-0.2-0.6-0.2-0.8-0.1-0.2 0.2-0.4 0.4-0.4 0.7v0.5c0.1 0.7-0.1 1.9-0.6 2.3-0.8 0.7-0.9 0.7-1.2 0.7h-0.3c-1.4 0.1-2.6 1.6-3.4 2-1.1 0.7-2.3 2-4.3 2.1-0.1 0-2.4 0.5-4 0.5-0.6 0-1.1-0.1-1.2-0.1-0.5-0.3-0.9-0.3-1.4-0.3-0.8 0-1.7 0.2-2.3 0.2h-0.4c-0.3-0.8-1.1-1.9-2.4-2.7-0.1-0.2-0.2-0.5-0.3-0.7-0.8-1.7-2.1-3.3-3.9-4.7-0.6-0.5-1.3-0.9-2-1.3v-0.1c-0.1-0.2-0.1-0.4-0.1-0.4-0.1-1.1 1.1-2.3 1.6-2.5m-9.6 2.4c0.1 0 0.2-0.1 0.3-0.1 1.4 0.1 4 0.4 6.6 1.7 0.8 0.4 1.5 0.8 2.3 1.4 1.6 1.2 2.7 2.7 3.4 4.2 0.8 1.6 1.1 3.2 1.1 4.9 0 1.1-0.1 2.3-0.5 3.4-0.5 1.7-1.4 3.3-2.2 4.6-1.3 1.9-2.9 3.4-3.6 3.7-1.4 0.7-3.4 1.2-4.3 3.9-0.8 2.4-2.1 7.8-4.4 9.8 0.1-0.2-0.5 0.3-0.4 1.1 0 0.2 0 0.5 0.1 0.9 0.1 0.3 0.2 0.8 0.4 1.3 1 2.3 4 8.3 4 12.6 0.1 0 0 0.1 0.1 0.3-0.1-0.1-0.1 0.1-0.1 0.1 0 4.7 0.9 9 1.9 12.6 1.4 3.7 2.8 7.9 4.8 8.5 0.7 0 2.4 0.6 2.7 1.1 0.9 0.9 3.2 1.8 3.9 2.2 0.2 0 0.7 0.3 0.9 0.5-0.1 0.1-0.2 0.1-0.4 0.2-0.8 0.3-1.6 0.4-2.2 0.4-1 0-1.6-0.2-1.6-0.2 0.1 0.1-0.8-0.6-1.8-0.6h-0.1-0.2c-0.7 0.2-1.1 0.7-1.3 0.8-0.1 0.1-1.4 0.4-2.2 1.2-0.1 0.1-0.1 0.2-0.2 0.2v0.1 0.1c-0.1 0.1-0.1 0.2-0.1 0.2-0.2 0.7-0.5 1.6-0.7 2-0.2 0.6-0.5 2.4-0.5 3.3 0 0.8-0.2 1.5-0.2 1.5-0.1 0.1-1.6 1-1.9 1h-1c-0.6 0-1.1-0.1-1.3-0.3-0.6-0.5-1.4-1.6-2.2-2.2-0.1-0.1-0.2-0.3-0.4-0.4-0.4-0.6-0.9-1.5-0.9-2.7 0-0.3 0-0.6 0.1-0.8 0.4-2.3 1.7-3.8 1.9-5v-0.1c-0.1-1.1-2.7-7.7-2.7-7.8-0.1-0.2-4.2-5.8-4.8-6.9-0.6-1.2-2.8-3.5-4.3-9.4-0.5-2-0.9-4.3-1.2-7.2 0-0.2-0.4-1.3-0.4-3.7v-0.9c0-0.7 0.1-1.4 0.2-2.2 0.6-4.5 0.4-10.5 0.5-11.5 0-0.2 0.1-0.7 0.1-1.4 0.3-2.1 0.9-5.9 1.9-8.5 1.2-3.3 6.3-11.7 6.3-11.7 0.2-0.4 0.1-0.8-0.2-1-0.1-0.1-0.2-0.1-0.3-0.1-0.3 0-0.5 0.1-0.6 0.4 0 0-5 8.3-6.4 12-1 2.5-1.5 5.9-1.8 8.1h-0.1c-0.4 0.1-0.8 0.2-1.3 0.2-2.6 0-5.8-3.1-8.7-6.8-1-1.4-1.4-2.5-1.4-3.6 0-2.6 2.1-5.5 5.5-9.1 3.6-4.6 17-6.2 19.9-6.3m-40.7 27.6c0-0.9 0.5-5.9 1.1-9.5 0.1-0.9 0.3-1.6 0.4-2.2 0.8-3.1 3.4-4.2 5.6-5.4 2.3-1.4 4.6-5.9 6.6-7.1 2-1.3 8.1-2.5 12.8-3.5 1.5-0.3 3.6-0.5 5.7-0.5h1.4c-5 0.9-11.2 2.6-14.1 5.8-3.4 3.7-5.9 6.7-5.9 10.1 0 1.5 0.6 3 1.7 4.5 3 3.7 6.2 7.3 9.8 7.3 0.4 0 0.8 0 1.2-0.1 0 0.3 0 0.5-0.1 0.7-0.1 1.2 0.1 6.9-0.5 11.4 0 0.5-0.1 1.1-0.1 1.6h-0.1s-0.2 0.1-0.4 0.3l-6.5-2.2c-1.1-0.3-7.2-2.8-8.9-3-1 0-4.4-1.3-5.6-2.2-1.2-0.6-4-5-4.1-6v0m-13.8 11.6c-0.4-0.2-1.1-2.3-1-3.7 0-0.8 0.2-1.3 0.3-1.4 1.3-1.2 4.6-5.1 4.6-5.1 4-7.2 7.9-9.4 9.4-10.1-0.5 3.4-0.9 7.4-1 8.5v0.2 0.1c0.2 1.8 3 5.9 4.8 7.2 1.6 1 4.8 2.3 6.4 2.4 1 0 7.3 2.6 8.5 2.9l5.5 1.8c-1.6 1.2-4.2 3-6.9 4.8-1.1 0.7-2.1 1-2.9 1-2.8 0.1-5.3-2.5-7.1-3.8-0.9-0.6-2.1-0.9-3.3-0.9-2.7 0-6 0.9-8.9 1.4h-0.7c-1.9 0-3.7-1.2-5-2.5l-0.3-0.3c-1.2-1-1.9-2-2.4-2.5m1.5 6.2c0-0.9 0.2-1.6 0.5-2 1.4 1.3 3.4 2.5 5.7 2.5 0.3 0 0.6 0 0.9-0.1 3.1-0.5 6.4-1.3 8.7-1.3 1.1 0 1.9 0.2 2.4 0.6 1.7 1.2 4.4 4 8 4.1 1.1 0 2.4-0.4 3.7-1.2 3.3-2.2 6.4-4.4 7.9-5.4l0.1-0.1c0 2.4 0.4 3.8 0.5 3.8 0.2 2.4 0.6 4.6 1 6.5-2 0.3-8.5 1.1-16.1 1.1-1.8 0-3.7 0-5.7-0.1-2.9-0.2-6-0.5-8.8-1.1-1.6-0.3-3.1-0.7-4.6-1.2 0 0-0.1 0-0.1-0.1-0.7-0.2-1.4-0.4-2.1-0.7-1.6-2.4-2-4.1-2-5.3m-11 57.1-0.1-0.1-4.7-3.3c-0.6-0.6-0.8-1.1-0.8-1.5 0-0.7 0.5-1.3 0.5-1.4 0 0 6.6-6.7 9.7-13.3 1.7-5.2 2.2-17.4 2.3-17.4 0.7-6 2.3-9.5 3.7-11.4 0.9-1.4 1.7-1.9 2.1-2.1 0.4 0.1 0.8 0.3 1.1 0.4-1.5 1.7-5.2 6.7-5.4 14.6l-1.7 20.9v0.2c0 0.2-0.1 1.2-1.2 4.1 0 0-1.7 3.8-2.7 5.9-0.7 1.6-0.8 1.7-0.9 1.9-0.4 0.9-1.6 2.2-1.9 2.5m7.1 3.1c-0.8-0.1-1.9-0.4-3-0.7-0.9-0.2-1.7-0.5-2.4-0.8-0.3-0.1-0.6-0.3-0.7-0.3h-0.1c0-0.1-0.1-0.2-0.1-0.2 0.5-0.5 1.6-1.7 2.1-2.6 0.2-0.3 0.3-0.5 1-2.1 1.1-2.2 2.7-6 2.7-6 1.1-2.9 1.3-4.1 1.3-4.7v-0.2l1.6-20.8c0.2-8.6 4.9-13.6 5.5-14.3 1 0.3 2 0.5 3 0.7-1.9 1.7-5.9 6.5-5.9 15.1v0.3c0 4.4 0.4 9.5 0.4 14.4 0 6.7-0.6 13.1-2.9 17.3-0.4 0.6-0.7 1-1 1.6 0.3 0.2-1.2 1.7-1.5 3.3m9.5 3.6c-0.3-0.2-0.9-0.7-1.4-1.3-1.7-1.8-3.6-1.6-6.2-1.7-0.4-0.1-0.3 0-0.4-0.2-0.1-0.6 1.4-2.6 1.4-2.6 0.5-0.6 0.8-1.2 1.1-1.8 2.6-4.6 3.1-11.2 3.1-17.9 0-5-0.3-10.1-0.4-14.4v-0.3c0-10.6 6.3-14.7 6.2-14.7h0.1c2.4 0.4 4.8 0.7 7.3 0.9-1.3 1.8-3.9 5.9-4 11.6 0 7.4 2.1 18.2 2.1 20.8 0 0 0 0.2 0.1 0.4-0.1 1.1-0.7 5-1.5 8.7-0.3 1.3-0.8 3.5-0.8 6.3 0 2 0.3 4.3 1.2 6.7-0.7-0.1-1.4-0.2-2-0.2h-0.2c-0.2 0-0.3 0-0.5 0.1-0.6 0.1-1.1 0.1-1.7 0.1-2-0.1-3.5-0.5-3.5-0.5m7.2 14.6-0.4 0.4c-1.1 0.9-3.3 2.3-4 2.6-3.9-0.1-4.5-2.1-4.6-5 0-1.9 0.5-3.9 0.6-5.3 0.1-2.2 4.7-5.1 6.3-5.5 0.2-0.1 0.4-0.1 0.6-0.1h0.1c0.9 0 2.1 0.2 3.3 0.3 1.4 0.2 2.7 0.4 3.1 0.4 0-0.1 1.4 0.7 2.7 1.6 1.1 0.7 2.2 1.4 2.4 1.6v0.2 0.3c0 1.6 0.8 2.9 1.6 3.9-1.5-0.1-2.9-0.1-3.4-0.1h-0.1c-1.8 0.1-6.8 3.1-8.2 4.7m1.7 0.9c0-0.2-0.1-0.3-0.2-0.4 1.3-1.2 5.9-3.8 6.6-3.8 1.1 0.1 3.3 0 5.3 0.2 1.4 0.1 2.7 0.5 2.7 0.6 0.9 1 1.3 4.9 2.3 6 0.6 0.5 5 4.1 5 4.1 0.3 0.2 0.8 0.2 1-0.1 0.3-0.3 0.2-0.8-0.1-1 0 0-4.5-3.7-5-4.1-0.2 0.1-1-4.3-2.1-5.8-0.7-0.8-1.9-1-3.2-1.2-0.8-0.6-2.5-2.3-2.5-4v-0.1c0-0.2 0.1-0.5 0.1-0.8 0.4-1.8 1.8-4.1 3.5-6.1 0.6-0.7 1.7-1.6 2.9-2.4 1.9-1.2 4-2.3 4.8-2.7 3.4 3.6 10.2 10.5 13.6 12.6-0.6 2.7-1.1 5.6-1.1 8.9v1.2c0.1 2.9 0.2 6.1 0.4 9.1-2.3 2-5.7 2.5-9.6 2.5-2.7 0-5.7-0.3-8.6-0.4-6.3-0.4-11.6-3.8-13.6-5.8l-0.5-0.5c-1.2-1.6-1.7-6-1.7-6m68.3 33.8c0.5 0.7 1.5 2 2.5 3.8 0.5 0.9 0.8 2.5 0.8 4.1 0 2.1-0.3 4.2-0.5 5.3 0 1.4-1 1.5-3.7 4.6-1.1 1.2-3 1.7-5 1.7-2.1 0-4.2-0.5-5.5-0.9-2.9-0.8-9.3-2.1-13.1-2.6-3.4-0.3-10.8-4.7-12.6-5.6-1.6-0.7-10.3-7.9-11.2-8.8-1.3-1.1-3.7-1.6-4.7-1.8h-0.1-0.1c-1.9 0.1-7.4 4.3-8.1 4.7-0.6 0.3-1.5 1-1.9 2-0.1 0.2-0.2 0.6-0.2 0.7 0 0.7 0.3 1.1 0.5 1.6 0.5 1.1 1.7 1.1 1.9 1.3 0.4 0.2 1.1 0.3 1.7 0.5-0.1 0.2-0.2 0.3-0.4 0.5s-0.3 0.4-0.5 0.5c-0.1 0.2-0.1 0.1-0.1 0.1-0.9 0.7-0.7 1.4-0.7 1.7-0.1 0.1-0.6 0.2-0.7 0.2h-0.1c-0.3 0-0.8-0.1-1.2-0.1h-0.3c-0.3 0-1.4-0.1-1.5-0.1l-0.5-0.5c-0.1-0.1-0.1-0.2-0.1-0.2-0.4-1-3.3-6-3.4-7l-0.2-0.1h0.2c0-1.2 2.2-6.9 3.3-9.3 1.3-2.8 1.3-5.7 1.4-7.1 0-0.8 0.6-1.5 0.9-1.9 5.6 4.8 10.6 10.4 17.4 13.6s21.5 9.1 23.2 9.6c0.3 0.2 0.9 0.4 1.7 0.7 2.9 1.2 8.3 3.6 8.9 4.2 0.3 0.3 0.7 0.3 1 0s0.3-0.7 0-1c-0.7-0.7-3.2-1.9-5.6-2.9h0.6c11.9 0.1 13.2-6 15.4-10.8 0.3-0.1 0.5-0.5 0.6-0.7m-4.2-14c0.9 2.8 1.7 5.2 1.8 5.6 0.4 1 1.6 2.4 1.6 4.9 0 0.4-0.1 0.9-0.1 1.4-0.1 0.2-0.1 0.4-0.2 0.6-0.2 0.6-0.4 1.1-0.7 1.8-2.6 5.1-2.7 9.8-14.1 10h-1.5l-3.1-0.3h-0.1c-0.6-0.2-1.2-0.5-1.5-0.6-1.5-0.5-16.3-6.4-23-9.6-6.5-3.1-11.5-8.6-17.2-13.6-0.2-0.1-0.2-0.2-0.3-0.3-2.9-2.7-3.5-6.5-3.5-9.1 0-0.9 0.1-1.6 0.2-2.2 2.6 2.2 7.6 5 13.6 5.4 2.9 0.2 5.9 0.5 8.7 0.5 3.6 0 7.1-0.5 9.7-2.3 0.4 4.2 1.1 7.9 3.2 9.6 0 0 2.3 1.9 2.5 2.1s0.8 0.6 1.3 1c0.3 0.2 0.6 0.4 0.7 0.6l0.2 0.2c0.1 0.3 0.5 1.3 0.5 1.7-0.2 0.1-1.2 0.6-1.6 1.2-0.1 0.2-0.3 0.7-0.3 1.2-0.1 0.5 0.1 1.2 0.8 1.6 0 0 0.2 0.1 0.6 0.2 0.4 0 0.8-0.2 1.1-0.6 0.2-0.4 0.7-0.5 1-0.6 0.5-0.2 2.1-0.6 2.8-1.8l2.4 5c0.4 0.3 1 0.7 1.7 0.7 0.3 0 0.5-0.1 0.7-0.1 0.3-0.3 0.9-0.7 0.9-1.4 0-0.2 0-0.4-0.1-0.5-0.1-0.4-0.7-2.5-0.7-2.5l-0.7-2.5 0.5 0.7 1.7 2.9c0.2 0.1 0.7 1.1 1.8 1.2 0.2 0 0.3 0 0.4-0.1 0.4-0.2 1.4-0.6 1.4-1.7 0-0.3-0.1-0.6-0.2-0.9l-1.5-3.6s-0.5-1-1.2-2l0.5 0.2 4.1 2.6 0.4 0.1c0.1-0.1 0.8 0 1.4-0.7 0.2-0.3 0.3-0.6 0.3-0.8 0-0.6-0.4-1.1-0.6-1.4-0.3-0.3-3.4-4.2-3.4-4.2-0.1-0.1-1.4-1.1-2.3-1.5 0 0-0.5-0.5-0.4-0.6-0.4-0.9-2-2.1-2.4-2.6-0.6-0.4-3-2-4.3-2.3-1-0.2-2.6-0.7-2.6-1.1v-0.1c0.4-1.7 3.1-8.3 3.1-8.3l2.1-4.3s0.2-0.5 0.6-1.2c0.6 0.6 2.7 2.6 6.7 2.6 0.3 0.6 3.1 6.5 3.3 8.3 0.1 1.5 1.9 7 3.3 11.5m-0.7-7c-0.6-2.2-1.2-4-1.3-4.7-0.3-2.1-2.5-6.7-3.2-8.2 5.1-1 9-3.9 10.8-6.5 2.6-0.4 4.5-1.7 5.9-3.4-0.3 2.1-0.8 4.6-2.2 8.2 0 0-1.1 3-2.4 5.6-0.5 2.4-5.8 7.4-7.6 9m5.3-3.1c1.7-1.8 3.3-3.9 3.7-5.4 0.5-0.9 0.8-1.7 1.2-2.6 0.1 4.3 0.5 10.7 0.7 13.6-3-2.9-5.5-5.5-5.6-5.6m35.3 4.3c-0.1 0.7-0.1 1.6-0.1 2.5 0 0.5 0 1 0.1 1.5-0.6-0.2-1.2-0.3-1.8-0.3-3.2 0.1-5.7 2.4-8.9 3.5-3.1 1-6.4 1.4-8 1.5 1.2-3.1 4.4-12.2 5.3-19.7 0 0 0.5-4.6 0.9-11 0-0.3-0.3-0.7-0.6-0.7-0.4 0-0.8 0.3-0.8 0.7-0.5 6.3-0.9 10.9-0.9 10.9-0.8 7.7-4.4 17.4-5.4 19.9-1.7-0.5-4.8-3.2-7.8-5.9v-0.1s-0.8-11.4-0.8-16.6c0-1 0.1-1.8 0.1-2.1v-0.1c1.8-5.2 2-8.3 2.7-10.9v-0.2c1.3-2.8 1.7-5.9 1.7-7.3 0-0.8-0.7-3.1-0.7-3.1s-0.2-0.6-0.3-1.4l1.2-1.1h0.1c0.4 0.6 0.7 1.2 1.2 1.7 1.2 1.3 3.9 2.6 6.5 2.6 0.5 0 1.1-0.1 1.5-0.2 1.4-0.4 1.8-1.3 1.9-1.2 1-0.3 1.7-1.1 2.1-1 1-0.3 1.6-1.2 1.9-1.8 0.2 0 0.4 0.1 0.6 0.1 0.7 0 2.1-0.2 2.2-1.7 0.1-1.2 0.1-3.8 0.2-4.8 0.6-0.4 1.8-1.6 2.3-3.6 1.2-0.1 3.3-0.3 3.3-0.3 2.2-0.6 2.8-2.4 2.8-3.9 0-0.9-0.2-1.7-0.4-2.3-0.5-1.5-2.4-2.7-3.4-3.3 0.2-0.5 0.4-1 0.4-1.4-0.1-1.5-1.1-2.2-1.1-2.3-0.4-1.4-1.7-2.1-2.8-2.4l-0.3-13.2c2.4-0.6 4.8-2.1 6.2-4.9l0.3 0.2h0.6c0.5 0 1.3-0.1 2.2-0.4 1.5-0.6 2.7-1.9 2.7-1.9 0.7-0.5 1.1-1.2 1.2-1.9l8.2 3.9c0.1 0.5 0.2 0.9 0.2 1.3v0.3c-0.1 0.2-0.1 0.5-0.1 0.5 0.1 1.6 1.2 2.3 1.2 2.3 0.1 0.1 0.2 0.2 0.3 0.2v0.4c0 1.2 0.1 2.4 0.3 3.9 0 0 0.3 2.5 1.9 4.7 0 0.1 0 0.1-0.1 0.1 0 0-0.8 2.2-1.2 2.4-1 0.8-4 4.6-4.1 8.2 0 0.3 0 0.6 0.1 1 0.7 3.2 2.3 8.5 2.3 8.5 0.1 0.4 0.4 0.5 0.8 0.5l0.6-0.1c-0.4 1.1-1.2 3.1-1.5 3.3-0.4 0.4-2.9 2-4.9 7.7-0.4-0.2-1.1-0.4-1.9-0.4-1.1 0-2.4 0.4-3.8 1.7-1.8 1.7-2.4 2.2-2.5 2.2 0 0.1-0.1 0.1-0.1 0.1l-0.1 0.1c-0.7-1.6-0.9-3.1-0.9-4.4-0.1-7 7.9-10.2 7.9-10.2 0.3-0.2 0.5-0.6 0.4-1-0.2-0.4-0.6-0.5-0.9-0.4 0 0-2.4 1-4.7 3.1-0.1-1.7-0.3-4.6-0.4-6.9 0.2-0.4 1.4-4.1 3-8 1.6-4.1 4-8.5 5-8.7 0.4-0.2 0.6-0.6 0.4-1-0.1-0.4-0.6-0.6-0.9-0.4-2.3 1.1-4.9 6.9-6.7 11.6 0.6-3.3 1.6-7.9 2.6-12.1 0.1-0.4-0.2-0.7-0.6-0.8s-0.7 0.1-0.8 0.5c-1.6 7-3.3 15-3.4 16.8-0.1 0.4-0.1 0.9-0.1 1.4 0 3.2 0.4 8.5 0.5 9-1.5 1.7-2.7 4-2.7 7 0 1.6 0.3 3.4 1.2 5.4 0 0.1 0.1 0.2 0.1 0.3-1.1 1.5-1.1 1.6-1.4 2.2-0.2 0.8-1.2 4.7-1.2 5.7 0 0.2 0 0.7-0.1 1-0.1 0.2-0.1 0.4-0.1 0.5-0.1 0.1-1.1 0.7-1.5 0.9-0.4-0.7-1.4-2.1-2.5-2.5-0.2-0.1-0.6-0.1-0.9-0.1-0.4 0-1.3 0.1-1.4 1.1 0 0.1 0 0.3 0.1 0.4-0.4 0.1-1.1 0.2-1.2 1.3 0 0.7 0.4 1.1 1.1 1.6l2.1 1.9c0.1 0 2 1.7 3.5 2.1 0.3 0.1 0.8 0.1 1.2 0.1 0.8 0 1.7-0.2 2.4-0.6l-0.2 0.6c-0.6 0.9-1.2 2.8-1.2 3.9 0 0.2 0 0.5 0.2 0.8 0-0.2 0.2 1.5 1.8 1.7 0.6 0 1.1-0.4 1.5-1l0.3-0.4c-0.6 2-1.2 3.6-1.6 4.4-1.5 3.3-3.5 5.7-3.6 8.3m7.5-28.3c-0.4-0.1-0.8 0.1-0.9 0.5s-1 1.5-1.1 3.4c0 0.9-0.9 0.9-1.1 0.9-0.3-0.1-0.4-0.4-0.5-1.3 0-0.7 0.1-1.5 0.2-1.9s-0.2-0.7-0.6-0.8-0.7 0.2-0.8 0.6c0 0.3-0.2 1.2-0.2 2.1 0 0.7 0.2 1.7 0.8 2.3 0 0.3-0.1 1.1-0.3 2l-0.3 0.3c-0.6 0.9-1.7 1.2-2.6 1.2-0.4 0-0.7 0-0.9-0.1-0.9-0.2-2.9-1.8-2.9-1.8l-2.2-1.9-0.4-0.4c0.3-0.1 0.9-0.2 1.2-1.2v-0.3c0.1 0 0.3 0 0.4 0.1 0.1-0.1 1.9 2.1 2 2.2 0.4 0.4 0.4 0.3 0.6 0.4 1.1-0.1 2.2-1.1 2.6-1.4 0.7-0.8 0.6-1.8 0.7-2.6 0-0.4 1-4.7 1.1-5.1 0.3-0.7 0-0.2 2.1-3 0.1-0.1 0.6-0.5 2.6-2.4 1.1-1.1 2.1-1.3 2.8-1.3 0.6 0 1.1 0.2 1.4 0.4-0.9 2.9-1.8 6.7-2.4 11.8 0 0-1.2 4.1-2.4 8.4-0.1 0-0.1 0.1-0.2 0.1l-1.4 2.3-1.3 1.8c-0.3 0.4-0.4 0.4-0.4 0.4-0.1 0.1-0.1 0-0.3-0.4-0.2-0.2-0.2-0.5-0.3-0.5l-0.2-0.2h0.2c-0.1-0.5 0.7-2.7 1-3.2 0.4-0.7 0.5-1.7 0.8-3 0.1-0.9 0.3-1.8 0.3-2.3 0.6-0.1 2.1-0.5 2.2-2.3 0.1-1.5 0.7-2 1.1-3 0.2-0.3-0.1-0.7-0.4-0.8m-6.3 74.8-20.4-6.9v-4.2l20.4 6.7v4.4zm40.9-11.4-39.5 11.6v-4.7l39.5-11.2v4.3zm-25.5-1.5c0.4-0.1 0.6-0.4 0.5-0.8l-0.9-6.1 3.4-0.8 20.2 4.2-37.9 10.8-19.3-6.3 19.6-4.6-1.2 6.3c-0.1 0.4 0.1 0.7 0.5 0.8s0.7-0.1 0.9-0.4l2.7-7.3 8.5-2 2.1 5.9c0.2 0.2 0.6 0.4 0.9 0.3m-10.8-6 4.1-10.4 3.2 8.7-7.3 1.7zm8.8-2-0.1 0.1-3.9-10.7c-0.1-0.3-0.4-0.4-0.7-0.4s-0.6 0.2-0.7 0.4l-5.2 13.1h-0.1l1.3-9.3v-0.1c0.3-0.6 0.8-1.7 1.1-2.9 0.4-1.7 1.6-6 2.8-7.9 0.7-1.1 1.9-1.5 2.6-1.7l0.1 1.8 2.8 17.6zm11.7-54.2c-5.1 9.4-12.3 17.9-12.9 19.4-0.2 0.8-0.5 1.7-0.5 2.7 0 1.4 0.3 3.4 1.1 6.7 0.2 0.7 0.2 1.5 0.2 2.1 0 1.5-0.4 2.9-0.9 3.9l-0.1-1c0-0.4-0.4-0.6-0.8-0.6-0.1 0-2.7 0.2-4.4 2.6-1.4 2.2-2.6 6.5-3 8.4-0.2 0.9-0.6 1.8-0.9 2.4-0.3-0.3-0.4-0.8-0.4-1.2l0.1-0.2-0.6-9.5-0.3-0.5c-0.5-0.3-0.8-0.7-1-1.1 0-0.1-0.1-0.1-0.1-0.1s0-0.3-0.2-0.4c-0.2-0.7-0.3-1.5-0.3-2.3s0.1-1.6 0.1-2.4c-0.1-1.8 1.8-4.3 3.3-7.5 0.7-1.5 1.9-5.3 3-9.1 1.4-4.4 2.6-8.8 2.6-8.8 0.7-5.5 1.6-9.4 2.6-12.3 2.1-6.1 4.2-7.3 4.8-7.9 1.1-1 2.1-4.5 2.1-4.5l13.4-1.9s0.8-0.2 1.8-0.6l-4.1 8.8-0.1 0.4v0.9c0 3-1.2 6.8-3 10.6-0.5 1.1-1 2-1.5 3m14.1 10.8s-5.5 8.4-6.2 9.5-0.7 2.7-0.8 3.9c0 0.6 0 1.2 0.1 1.4 0 0.6-0.5 2.3-0.5 2.3-0.1 0.3-0.1 0.6-0.1 0.8 0 1.6 0.9 3.3 1.8 4.4 1 1.2 2.2 2 2.5 2.8v0.2c0.1 0.6-0.9 2-2.3 2.6-0.8 0.4-2.6 0.6-4.6 0.6-1.5 0-3.1-0.1-4.4-0.3-2-0.3-2.1-1.7-2.1-2.6v-0.4c0 0.1 1.3-4.2 1.6-4.8 0.2-0.6 0.2-1.5 0.2-2.4 0-0.8 0-1.6-0.1-2.2-0.1-0.1-0.1-0.2-0.1-0.2 0-1.1 1.3-4.2 2.5-5.7 1-1.5 1.1-3.8 1.1-5.6 0-1-0.1-1.9-0.1-2.2-0.1-0.1-0.1-0.6-0.1-1.2 0-3.2 0.1-11.6 0.1-13.3 5.8-1.3 10.9-2 14.8-2.4-0.8 11.1-3.4 14.7-3.3 14.8m5 26.5-1.5-5.6c-1.2-3.2-1.6-6-1.6-8.5 0-5 1.8-8.5 2.3-9.9 0.7-1.9 5.4-10.8 5.4-10.8l2.8-6 0.4-1.8c0.1-0.4 0.2-0.8 0.3-1.5 0.8-3.2 1.8-8.7 1.9-10.8v-0.5c0-2.4-1-6.7-1.7-8.7-0.4-0.9-0.5-1.7-0.5-2.6 0-0.7 0.1-1.3 0.2-2.1 0.1-1.3 1.9-7.9 2.3-9.8l8.8-0.4c0.1 0 3-0.3 5-1.6 0.3-0.2 0.4-0.7 0.2-1s-0.7-0.4-1-0.2c-1.6 1-4.4 1.4-4.4 1.4l-13 0.7c-0.4 0-0.7 0.4-0.7 0.8s0.3 0.7 0.7 0.7l2.8-0.1c-0.4 2.1-2 8.1-2.2 9.5-0.1 0.7-0.2 1.4-0.2 2.3s0.2 2 0.6 3.1c0.7 1.7 1.6 6.1 1.6 8.2v0.2c-0.1 2.1-1.1 7.7-1.8 10.8-0.1 0.4-0.2 0.8-0.3 1.1-1 0-3.6 0-7.3 0.4h-0.2c-3.8 0.3-8.9 1-14.7 2.3 1.6-3.5 2.7-7.1 2.7-10.1 0-0.3-0.1-0.6-0.1-0.9l4.4-9.5v-0.1c0.1-0.2 0.1-0.3 0.1-0.4 1.1-0.5 2.2-1.1 2.9-2 1.8-2.1 6.7-10.1 6.7-10.2l0.1-0.1c0.4-0.7 0.9-1.4 1.3-2.2l0.2-0.4h0.1c0.1-0.4 0.3-0.8 0.4-1.2 0.6-1.4 1.6-3.5 2.5-5.4 0.1 0.2 1.6-0.8 1.9-0.8 5.4-2.1 7.1-8.9 7.2-9v-0.5c2.7 3.2 9.4 10.3 17 12.5-6.7 8.1-11.8 16.9-15.6 25.2-0.2-2.7-0.3-5-0.3-6.5 0-1.4 0.1-2.1 0.1-2.1 0-0.4-0.3-0.7-0.7-0.8-0.4 0-0.7 0.3-0.8 0.7 0 0-0.1 0.8-0.1 2.1 0 2 0.1 5.1 0.6 8.9l0.1 0.1c-9.4 21.8-10.6 40.7-10.6 40.8s0 0.2 0.1 0.2c0 0.2-0.1 0.4-0.1 0.6 0 2 1.6 3.9 6 5.2h0.1c0.1 0 0.1-0.1 0.2-0.1-0.3 1.6-0.7 3.1-1.1 3.9-1.7 4-2.9 7.1-2.9 9 0 0.6-0.1 1.6-0.4 2.6-0.1-0.1-0.2-0.1-0.3-0.1-2.7-0.7-3.2-0.8-5.9-9m5.6-12.1s2.1-3.1 2.4-3.3c0.9-0.7 2.4-1.9 4.3-3.4-0.3 2.2-0.9 7.2-1.6 11.2-0.1 0-0.1-0.1-0.2-0.1-4.2-1.3-5.1-2.8-5.1-3.9 0.1-0.1 0.2-0.3 0.2-0.5m15.7 29.6v0.1c0 0.8-1.7 2.6-2.3 2.9-0.5 0.4-2.1 1-3 1.6-0.2 0.1-0.6 0.2-1.2 0.2-0.5 0-1.1-0.1-1.6-0.1-0.8 0-3-0.8-3-0.8h-0.4s-1.6 0.3-2.9 0.3c-0.2 0-0.5 0-0.7-0.1-0.8 0.1-1.1-1.2-1.2-3.4v-0.4c0-0.5 0.1-1.1 0.2-1.6 0.4-1.2 0.9-2.3 1.3-3 0.6-1.3 1.6-5.2 1.6-7h-0.6 0.6c0-1.3 1.2-4.5 2.8-8.4 1.8-4.3 3.1-17.6 3.1-17.6v-0.3c6.9-5.6 16.9-13.8 19.5-17.4 0.3-0.5 0.7-1 1.2-1.4v0.4c0 15.8-15.3 37.2-16.8 40.2-0.6 1.1-0.7 2.2-0.7 3.5 0 1.9 0.4 3.9 0.7 5.1 0.2 0.9 0.4 1.4 0.4 1.4-0.1 0.4 2.9 4.8 3 5.8m26.5-6.4h-1.4c-2.7-0.1-3 0-5.9-0.2-1.4-0.1-2.9-0.1-4.4-0.2 0 0-0.1 0-0.1-0.1-4.6-1-10.8-7.9-10.9-7.9-0.2-0.3-0.7-0.3-1-0.1-0.3 0.3-0.3 0.7 0 1 0.2 0.2 3.9 4.4 8 6.8-2.2-0.1-4.2-0.2-6-0.3-2-0.2-3.7-0.3-4.9-0.4-0.6-0.1-1.1-0.1-1.4-0.2-0.2 0-0.3 0-0.4-0.1-0.1 0-0.2-0.1-0.3-0.1-0.2-1.2-0.5-2.7-0.5-4.1 0-1.1 0.1-2.2 0.5-2.8 0.9-1.8 7.8-11.7 12.6-22.8 2.6 2.9 5.1 5.7 7.5 8.3 0 0.1-0.1 0.3-0.1 0.3 0.3 14.9 7 20.7 11.1 22.9h-2.4m5.7-0.2h-0.2s-11.8-2.1-12.8-21.4c4.1 4.4 7.2 7.6 7.2 7.6 0.1 0.1 0.3 0.2 0.5 0.2s0.4-0.1 0.5-0.2c0.3-0.3 0.3-0.7 0-1 0 0-8.5-8.9-16.2-17.6-0.1-0.1-0.2-0.1-0.3-0.2 2.3-5.6 3.9-11.4 3.9-16.7v-1.5c2.4-1.5 5.5-1.8 7.2-1.8 1 0 1.6 0.1 1.6 0.1 0.4 0 0.8-0.3 0.8-0.6 0.1-0.4-0.2-0.7-0.6-0.8 0 0-0.7-0.1-1.8-0.1-2 0-5.5 0.3-8.5 2.3-0.9 0.6-1.8 1.4-2.5 2.4-2.4 3.3-12.8 12-19.7 17.6-2.3 1.8-4.2 3.3-5.3 4.2-0.2 0.2-0.4 0.4-0.6 0.7 0 0.1-0.3 0.3-0.6 0.6 1.1-9.5 6.2-40.3 27.2-65.4 0.8 0.1 1.6 0.2 2.4 0.2h1l-5.2 20.5c-0.1 0.4 0.2 0.8 0.5 0.9 0.4 0.1 0.7-0.1 0.8-0.5l5.4-21.2c1.5-0.3 2.9-0.9 4.3-1.9 1.9-1.3 8.5-4.5 10.5-8l6-4.9s1.3-1.1 2.6-2.8c2.7 6.9 4.4 16.5 5.9 29.5 0.5 4.6 0.7 9 0.7 13.3 0 15.9-3 29.8-5.2 38.4-0.3-8.5-1.7-22.9-1.7-32.9 0-3.2 0.1-5.9 0.4-7.8 0.6-3.4 0.8-6.8 0.8-9.7 0-5.8-0.8-10-0.8-10-0.1-0.4-0.4-0.7-0.8-0.6s-0.7 0.5-0.6 0.9c0 0 0.8 4.1 0.8 9.7 0 2.9-0.2 6.1-0.8 9.5-0.4 2-0.5 4.8-0.5 8 0 11.6 1.8 28.9 1.8 36.2 0 1 0 1.8-0.1 2.3v0.1c-0.4 1.9-0.6 3.9-0.6 6 0.1 6.3 1.7 12.7 4.5 15.4-2.7 0.3-7.5 0.8-11.9 1"/>
<path class="st2" d="m312.7 169.7c0.2 0 0.4-0.1 0.6-0.3 0 0 0.6-0.8 1.3-1.4v0.1l0.3 0.4c0.2 0.3 0.7 0.4 1 0.2s0.4-0.7 0.2-0.9l-0.3-0.4c-0.1 0-0.1-0.1-0.1-0.1 0-0.1 0.2-0.1 0.2 0h0.1c0.3 0.2 0.7 0.2 1-0.1 0.2-0.3 0.2-0.7-0.1-1s-0.6-0.4-1-0.4c-2.1 0.2-3.7 2.9-3.8 2.9-0.2 0.3-0.2 0.8 0.2 1h0.4"/>
<path class="st2" d="m313.2 227c-0.3 0.2-0.3 0.7-0.1 1 0.2 0.1 0.4 0.2 0.6 0.2s0.3-0.1 0.5-0.2l0.6-0.5c0.5 0.2 1 0.3 1.1 0.4 0.4 0.1 0.7-0.2 0.8-0.5 0.1-0.4-0.1-0.8-0.5-0.9 0 0-2.4-0.8-2.6-1.3-0.2-0.3-0.7-0.4-1-0.2-0.4 0.2-0.5 0.6-0.2 1s0.6 0.7 1 1h-0.2z"/>
<path class="st2" d="m293.9 142.5c-0.2 0.4-0.1 0.8 0.2 1l1.2 0.7-0.3 0.5c-0.3 0.3-0.2 0.8 0.1 1 0.4 0.2 0.8 0.1 1-0.2l0.3-0.6 1.3 0.9c0.1 0.1 0.2 0.1 0.4 0.1s0.5-0.1 0.6-0.3c0.2-0.3 0.1-0.7-0.2-1l-3.7-2.4c-0.2-0.1-0.7 0-0.9 0.3"/>
<path class="st2" d="m348.2 142.3c-0.4 0-0.7-0.1-0.8-0.1 0-0.1-0.1-0.1-0.1-0.1-0.3-0.3-0.7-0.3-0.9 0 0 0.1-0.2 0-0.3 0.5 0.1 0.8 0.7 1.2 2.1 1.2 0.4 0 0.7-0.3 0.7-0.7s-0.3-0.7-0.7-0.8"/>
<path class="st2" d="m344.7 137.3c-0.1 0.4 0.2 0.8 0.6 0.8h0.1c0.4 0 0.7-0.2 0.8-0.6v-0.3c0.5 0.1 1.1 0.2 1.7 0.2 0.4 0 0.7-0.3 0.7-0.7s-0.3-0.7-0.7-0.7c-2 0-4-1.3-4-1.3-0.4-0.2-0.8-0.1-1 0.2s-0.1 0.8 0.2 1c0 0 0.6 0.4 1.6 0.8v0.6z"/>
<polygon class="st2" points="344.9 145.1 344.9 145.1 344.8 145.1"/>
<path class="st2" d="m347.6 144.7c-1.1-0.1-1.8-0.7-1.8-0.7-0.3-0.3-0.7-0.2-1 0.1s-0.2 0.7 0.1 1c0.1 0 1.1 1 2.7 1 0.4 0 0.7-0.3 0.7-0.7 0.1-0.3-0.3-0.7-0.7-0.7"/>
<path class="st2" d="m409.7 178.2c0.2 0 0.4-0.1 0.5-0.3l5.7-5.7c0.3-0.2 0.3-0.7 0-1-0.2-0.3-0.7-0.3-1 0l-5.7 5.8c-0.3 0.3-0.3 0.7 0 1 0.2 0.1 0.3 0.2 0.5 0.2"/>
</svg>
